<?xml version="1.0" encoding="UTF-8" standalone="no"?>
<!DOCTYPE svg PUBLIC "-//W3C//DTD SVG 1.1//EN"
 "http://www.w3.org/Graphics/SVG/1.1/DTD/svg11.dtd">
<!-- Generated by graphviz version 2.47.3 (20210619.2315)
 -->
<!-- Title: snakemake_dag Pages: 1 -->
<svg width="4342pt" height="871pt"
 viewBox="0.00 0.00 4342.00 871.00" xmlns="http://www.w3.org/2000/svg" xmlns:xlink="http://www.w3.org/1999/xlink">
<g id="graph0" class="graph" transform="scale(1 1) rotate(0) translate(4 867)">
<title>snakemake_dag</title>
<polygon fill="white" stroke="transparent" points="-4,4 -4,-867 4338,-867 4338,4 -4,4"/>
<!-- 0 -->
<g id="node1" class="node">
<title>0</title>
<path fill="none" stroke="#56d85b" stroke-width="2" d="M2252,-36C2252,-36 2222,-36 2222,-36 2216,-36 2210,-30 2210,-24 2210,-24 2210,-12 2210,-12 2210,-6 2216,0 2222,0 2222,0 2252,0 2252,0 2258,0 2264,-6 2264,-12 2264,-12 2264,-24 2264,-24 2264,-30 2258,-36 2252,-36"/>
<text text-anchor="middle" x="2237" y="-15.5" font-family="sans" font-size="10.00">all</text>
</g>
<!-- 1 -->
<g id="node2" class="node">
<title>1</title>
<path fill="none" stroke="#56d86b" stroke-width="2" d="M1191,-560C1191,-560 1141,-560 1141,-560 1135,-560 1129,-554 1129,-548 1129,-548 1129,-536 1129,-536 1129,-530 1135,-524 1141,-524 1141,-524 1191,-524 1191,-524 1197,-524 1203,-530 1203,-536 1203,-536 1203,-548 1203,-548 1203,-554 1197,-560 1191,-560"/>
<text text-anchor="middle" x="1166" y="-545" font-family="sans" font-size="10.00">qc_multiqc</text>
<text text-anchor="middle" x="1166" y="-534" font-family="sans" font-size="10.00">report: DNA</text>
</g>
<!-- 1&#45;&gt;0 -->
<g id="edge1" class="edge">
<title>1&#45;&gt;0</title>
<path fill="none" stroke="grey" stroke-width="2" d="M1128.85,-540.47C929.96,-537.18 0,-515.56 0,-399 0,-399 0,-399 0,-212.5 0,-143.32 8.95,-109.63 67,-72 160.13,-11.63 1919.71,-17.49 2199.62,-18.81"/>
<polygon fill="grey" stroke="grey" stroke-width="2" points="2199.66,-22.31 2209.67,-18.85 2199.69,-15.31 2199.66,-22.31"/>
</g>
<!-- 2 -->
<g id="node3" class="node">
<title>2</title>
<path fill="none" stroke="#8fd856" stroke-width="2" d="M691.5,-681C691.5,-681 598.5,-681 598.5,-681 592.5,-681 586.5,-675 586.5,-669 586.5,-669 586.5,-608 586.5,-608 586.5,-602 592.5,-596 598.5,-596 598.5,-596 691.5,-596 691.5,-596 697.5,-596 703.5,-602 703.5,-608 703.5,-608 703.5,-669 703.5,-669 703.5,-675 697.5,-681 691.5,-681"/>
<text text-anchor="middle" x="645" y="-669" font-family="sans" font-size="10.00">qc_fastqc</text>
<text text-anchor="middle" x="645" y="-658" font-family="sans" font-size="10.00">barcode: ACGGAACA</text>
<text text-anchor="middle" x="645" y="-647" font-family="sans" font-size="10.00">flowcell: 1</text>
<text text-anchor="middle" x="645" y="-636" font-family="sans" font-size="10.00">lane: L001</text>
<text text-anchor="middle" x="645" y="-625" font-family="sans" font-size="10.00">read: fastq1</text>
<text text-anchor="middle" x="645" y="-614" font-family="sans" font-size="10.00">sample: NA12878</text>
<text text-anchor="middle" x="645" y="-603" font-family="sans" font-size="10.00">type: T</text>
</g>
<!-- 2&#45;&gt;1 -->
<g id="edge36" class="edge">
<title>2&#45;&gt;1</title>
<path fill="none" stroke="grey" stroke-width="2" d="M703.86,-599.18C706.57,-598.02 709.29,-596.95 712,-596 786.36,-570.08 1018.31,-552.49 1118.8,-545.9"/>
<polygon fill="grey" stroke="grey" stroke-width="2" points="1119.21,-549.38 1128.96,-545.24 1118.75,-542.39 1119.21,-549.38"/>
</g>
<!-- 3 -->
<g id="node4" class="node">
<title>3</title>
<path fill="none" stroke="#8fd856" stroke-width="2" d="M826.5,-681C826.5,-681 733.5,-681 733.5,-681 727.5,-681 721.5,-675 721.5,-669 721.5,-669 721.5,-608 721.5,-608 721.5,-602 727.5,-596 733.5,-596 733.5,-596 826.5,-596 826.5,-596 832.5,-596 838.5,-602 838.5,-608 838.5,-608 838.5,-669 838.5,-669 838.5,-675 832.5,-681 826.5,-681"/>
<text text-anchor="middle" x="780" y="-669" font-family="sans" font-size="10.00">qc_fastqc</text>
<text text-anchor="middle" x="780" y="-658" font-family="sans" font-size="10.00">barcode: ACGGAACA</text>
<text text-anchor="middle" x="780" y="-647" font-family="sans" font-size="10.00">flowcell: 1</text>
<text text-anchor="middle" x="780" y="-636" font-family="sans" font-size="10.00">lane: L001</text>
<text text-anchor="middle" x="780" y="-625" font-family="sans" font-size="10.00">read: fastq2</text>
<text text-anchor="middle" x="780" y="-614" font-family="sans" font-size="10.00">sample: NA12878</text>
<text text-anchor="middle" x="780" y="-603" font-family="sans" font-size="10.00">type: T</text>
</g>
<!-- 3&#45;&gt;1 -->
<g id="edge37" class="edge">
<title>3&#45;&gt;1</title>
<path fill="none" stroke="grey" stroke-width="2" d="M838.66,-599.88C841.76,-598.46 844.89,-597.16 848,-596 939.92,-561.76 1055.01,-549.56 1118.47,-545.27"/>
<polygon fill="grey" stroke="grey" stroke-width="2" points="1118.82,-548.76 1128.58,-544.63 1118.37,-541.77 1118.82,-548.76"/>
</g>
<!-- 4 -->
<g id="node5" class="node">
<title>4</title>
<path fill="none" stroke="#b6d856" stroke-width="2" d="M927,-656.5C927,-656.5 869,-656.5 869,-656.5 863,-656.5 857,-650.5 857,-644.5 857,-644.5 857,-632.5 857,-632.5 857,-626.5 863,-620.5 869,-620.5 869,-620.5 927,-620.5 927,-620.5 933,-620.5 939,-626.5 939,-632.5 939,-632.5 939,-644.5 939,-644.5 939,-650.5 933,-656.5 927,-656.5"/>
<text text-anchor="middle" x="898" y="-636" font-family="sans" font-size="10.00">qc_mosdepth</text>
</g>
<!-- 4&#45;&gt;1 -->
<g id="edge38" class="edge">
<title>4&#45;&gt;1</title>
<path fill="none" stroke="grey" stroke-width="2" d="M914.65,-620.37C923.77,-611.89 935.7,-602.18 948,-596 1003.01,-568.36 1073.18,-554.65 1118.83,-548.2"/>
<polygon fill="grey" stroke="grey" stroke-width="2" points="1119.31,-551.67 1128.75,-546.86 1118.38,-544.73 1119.31,-551.67"/>
</g>
<!-- 5 -->
<g id="node6" class="node">
<title>5</title>
<path fill="none" stroke="#d8a456" stroke-width="2" d="M2097.5,-753C2097.5,-753 1978.5,-753 1978.5,-753 1972.5,-753 1966.5,-747 1966.5,-741 1966.5,-741 1966.5,-729 1966.5,-729 1966.5,-723 1972.5,-717 1978.5,-717 1978.5,-717 2097.5,-717 2097.5,-717 2103.5,-717 2109.5,-723 2109.5,-729 2109.5,-729 2109.5,-741 2109.5,-741 2109.5,-747 2103.5,-753 2097.5,-753"/>
<text text-anchor="middle" x="2038" y="-732.5" font-family="sans" font-size="10.00">parabricks_pbrun_fq2bam</text>
</g>
<!-- 5&#45;&gt;4 -->
<g id="edge45" class="edge">
<title>5&#45;&gt;4</title>
<path fill="none" stroke="grey" stroke-width="2" d="M1966.44,-733.14C1739.05,-730.05 1042.37,-717.67 948,-681 938.06,-677.14 928.65,-670.47 920.73,-663.6"/>
<polygon fill="grey" stroke="grey" stroke-width="2" points="923.05,-660.98 913.34,-656.75 918.29,-666.12 923.05,-660.98"/>
</g>
<!-- 7 -->
<g id="node8" class="node">
<title>7</title>
<path fill="none" stroke="#9fd856" stroke-width="2" d="M1157,-656.5C1157,-656.5 969,-656.5 969,-656.5 963,-656.5 957,-650.5 957,-644.5 957,-644.5 957,-632.5 957,-632.5 957,-626.5 963,-620.5 969,-620.5 969,-620.5 1157,-620.5 1157,-620.5 1163,-620.5 1169,-626.5 1169,-632.5 1169,-632.5 1169,-644.5 1169,-644.5 1169,-650.5 1163,-656.5 1157,-656.5"/>
<text text-anchor="middle" x="1063" y="-636" font-family="sans" font-size="10.00">qc_picard_alignment_summary_metrics</text>
</g>
<!-- 5&#45;&gt;7 -->
<g id="edge47" class="edge">
<title>5&#45;&gt;7</title>
<path fill="none" stroke="grey" stroke-width="2" d="M1966.43,-732.21C1788.18,-727.32 1327.97,-712.02 1178,-681 1155.39,-676.32 1131.23,-668.13 1110.92,-660.25"/>
<polygon fill="grey" stroke="grey" stroke-width="2" points="1112.17,-656.98 1101.59,-656.55 1109.59,-663.49 1112.17,-656.98"/>
</g>
<!-- 8 -->
<g id="node9" class="node">
<title>8</title>
<path fill="none" stroke="#569ad8" stroke-width="2" d="M1339,-656.5C1339,-656.5 1199,-656.5 1199,-656.5 1193,-656.5 1187,-650.5 1187,-644.5 1187,-644.5 1187,-632.5 1187,-632.5 1187,-626.5 1193,-620.5 1199,-620.5 1199,-620.5 1339,-620.5 1339,-620.5 1345,-620.5 1351,-626.5 1351,-632.5 1351,-632.5 1351,-644.5 1351,-644.5 1351,-650.5 1345,-656.5 1339,-656.5"/>
<text text-anchor="middle" x="1269" y="-636" font-family="sans" font-size="10.00">qc_picard_duplication_metrics</text>
</g>
<!-- 5&#45;&gt;8 -->
<g id="edge48" class="edge">
<title>5&#45;&gt;8</title>
<path fill="none" stroke="grey" stroke-width="2" d="M1966.22,-731.55C1815.99,-725.92 1473.02,-710.21 1360,-681 1342.46,-676.47 1324.1,-668.73 1308.5,-661.16"/>
<polygon fill="grey" stroke="grey" stroke-width="2" points="1309.69,-657.84 1299.18,-656.5 1306.56,-664.1 1309.69,-657.84"/>
</g>
<!-- 9 -->
<g id="node10" class="node">
<title>9</title>
<path fill="none" stroke="#d85e56" stroke-width="2" d="M1542.5,-656.5C1542.5,-656.5 1381.5,-656.5 1381.5,-656.5 1375.5,-656.5 1369.5,-650.5 1369.5,-644.5 1369.5,-644.5 1369.5,-632.5 1369.5,-632.5 1369.5,-626.5 1375.5,-620.5 1381.5,-620.5 1381.5,-620.5 1542.5,-620.5 1542.5,-620.5 1548.5,-620.5 1554.5,-626.5 1554.5,-632.5 1554.5,-632.5 1554.5,-644.5 1554.5,-644.5 1554.5,-650.5 1548.5,-656.5 1542.5,-656.5"/>
<text text-anchor="middle" x="1462" y="-636" font-family="sans" font-size="10.00">qc_picard_collect_gc_bias_metrics</text>
</g>
<!-- 5&#45;&gt;9 -->
<g id="edge49" class="edge">
<title>5&#45;&gt;9</title>
<path fill="none" stroke="grey" stroke-width="2" d="M1966.47,-732.2C1872.53,-728.45 1703.08,-716.84 1563,-681 1543.78,-676.08 1523.41,-668.25 1506.02,-660.71"/>
<polygon fill="grey" stroke="grey" stroke-width="2" points="1507.26,-657.43 1496.7,-656.57 1504.42,-663.83 1507.26,-657.43"/>
</g>
<!-- 10 -->
<g id="node11" class="node">
<title>10</title>
<path fill="none" stroke="#5663d8" stroke-width="2" d="M2059,-656.5C2059,-656.5 1895,-656.5 1895,-656.5 1889,-656.5 1883,-650.5 1883,-644.5 1883,-644.5 1883,-632.5 1883,-632.5 1883,-626.5 1889,-620.5 1895,-620.5 1895,-620.5 2059,-620.5 2059,-620.5 2065,-620.5 2071,-626.5 2071,-632.5 2071,-632.5 2071,-644.5 2071,-644.5 2071,-650.5 2065,-656.5 2059,-656.5"/>
<text text-anchor="middle" x="1977" y="-636" font-family="sans" font-size="10.00">qc_picard_collect_multiple_metrics</text>
</g>
<!-- 5&#45;&gt;10 -->
<g id="edge50" class="edge">
<title>5&#45;&gt;10</title>
<path fill="none" stroke="grey" stroke-width="2" d="M2026.81,-716.67C2017.53,-702.28 2004.18,-681.61 1993.64,-665.28"/>
<polygon fill="grey" stroke="grey" stroke-width="2" points="1996.48,-663.23 1988.12,-656.72 1990.6,-667.02 1996.48,-663.23"/>
</g>
<!-- 11 -->
<g id="node12" class="node">
<title>11</title>
<path fill="none" stroke="#56d8a2" stroke-width="2" d="M1727.5,-656.5C1727.5,-656.5 1584.5,-656.5 1584.5,-656.5 1578.5,-656.5 1572.5,-650.5 1572.5,-644.5 1572.5,-644.5 1572.5,-632.5 1572.5,-632.5 1572.5,-626.5 1578.5,-620.5 1584.5,-620.5 1584.5,-620.5 1727.5,-620.5 1727.5,-620.5 1733.5,-620.5 1739.5,-626.5 1739.5,-632.5 1739.5,-632.5 1739.5,-644.5 1739.5,-644.5 1739.5,-650.5 1733.5,-656.5 1727.5,-656.5"/>
<text text-anchor="middle" x="1656" y="-636" font-family="sans" font-size="10.00">qc_picard_collect_wgs_metrics</text>
</g>
<!-- 5&#45;&gt;11 -->
<g id="edge51" class="edge">
<title>5&#45;&gt;11</title>
<path fill="none" stroke="grey" stroke-width="2" d="M1966.22,-725.82C1906.81,-717.88 1820.68,-703.66 1748,-681 1731.24,-675.77 1713.5,-668.28 1698.12,-661.1"/>
<polygon fill="grey" stroke="grey" stroke-width="2" points="1699.42,-657.83 1688.88,-656.69 1696.4,-664.15 1699.42,-657.83"/>
</g>
<!-- 12 -->
<g id="node13" class="node">
<title>12</title>
<path fill="none" stroke="#56b1d8" stroke-width="2" d="M1852.5,-656.5C1852.5,-656.5 1769.5,-656.5 1769.5,-656.5 1763.5,-656.5 1757.5,-650.5 1757.5,-644.5 1757.5,-644.5 1757.5,-632.5 1757.5,-632.5 1757.5,-626.5 1763.5,-620.5 1769.5,-620.5 1769.5,-620.5 1852.5,-620.5 1852.5,-620.5 1858.5,-620.5 1864.5,-626.5 1864.5,-632.5 1864.5,-632.5 1864.5,-644.5 1864.5,-644.5 1864.5,-650.5 1858.5,-656.5 1852.5,-656.5"/>
<text text-anchor="middle" x="1811" y="-636" font-family="sans" font-size="10.00">qc_samtools_stats</text>
</g>
<!-- 5&#45;&gt;12 -->
<g id="edge52" class="edge">
<title>5&#45;&gt;12</title>
<path fill="none" stroke="grey" stroke-width="2" d="M1971.38,-716.91C1940.95,-707.99 1904.89,-695.83 1874,-681 1863.13,-675.78 1851.94,-668.95 1842.05,-662.34"/>
<polygon fill="grey" stroke="grey" stroke-width="2" points="1843.97,-659.42 1833.74,-656.64 1840.01,-665.19 1843.97,-659.42"/>
</g>
<!-- 15 -->
<g id="node16" class="node">
<title>15</title>
<path fill="none" stroke="#5682d8" stroke-width="2" d="M2025,-330.5C2025,-330.5 1931,-330.5 1931,-330.5 1925,-330.5 1919,-324.5 1919,-318.5 1919,-318.5 1919,-306.5 1919,-306.5 1919,-300.5 1925,-294.5 1931,-294.5 1931,-294.5 2025,-294.5 2025,-294.5 2031,-294.5 2037,-300.5 2037,-306.5 2037,-306.5 2037,-318.5 2037,-318.5 2037,-324.5 2031,-330.5 2025,-330.5"/>
<text text-anchor="middle" x="1978" y="-310" font-family="sans" font-size="10.00">cnv_sv_cnvkit_batch</text>
</g>
<!-- 5&#45;&gt;15 -->
<g id="edge56" class="edge">
<title>5&#45;&gt;15</title>
<path fill="none" stroke="grey" stroke-width="2" d="M2079.11,-716.77C2095.6,-708.12 2113.59,-696.19 2126,-681 2167.17,-630.59 2175,-608.08 2175,-543 2175,-543 2175,-543 2175,-469 2175,-429.6 2076.71,-368.28 2018.98,-335.66"/>
<polygon fill="grey" stroke="grey" stroke-width="2" points="2020.53,-332.51 2010.09,-330.68 2017.11,-338.62 2020.53,-332.51"/>
</g>
<!-- 19 -->
<g id="node20" class="node">
<title>19</title>
<path fill="none" stroke="#56d882" stroke-width="2" d="M2391,-656.5C2391,-656.5 2239,-656.5 2239,-656.5 2233,-656.5 2227,-650.5 2227,-644.5 2227,-644.5 2227,-632.5 2227,-632.5 2227,-626.5 2233,-620.5 2239,-620.5 2239,-620.5 2391,-620.5 2391,-620.5 2397,-620.5 2403,-626.5 2403,-632.5 2403,-632.5 2403,-644.5 2403,-644.5 2403,-650.5 2397,-656.5 2391,-656.5"/>
<text text-anchor="middle" x="2315" y="-636" font-family="sans" font-size="10.00">parabricks_pbrun_mutectcaller_t</text>
</g>
<!-- 5&#45;&gt;19 -->
<g id="edge61" class="edge">
<title>5&#45;&gt;19</title>
<path fill="none" stroke="grey" stroke-width="2" d="M2087.84,-717C2134.86,-700.95 2205.4,-676.89 2255.38,-659.84"/>
<polygon fill="grey" stroke="grey" stroke-width="2" points="2256.76,-663.07 2265.09,-656.53 2254.5,-656.44 2256.76,-663.07"/>
</g>
<!-- 22 -->
<g id="node23" class="node">
<title>22</title>
<path fill="none" stroke="#61d856" stroke-width="2" d="M2043,-488C2043,-488 1959,-488 1959,-488 1953,-488 1947,-482 1947,-476 1947,-476 1947,-464 1947,-464 1947,-458 1953,-452 1959,-452 1959,-452 2043,-452 2043,-452 2049,-452 2055,-458 2055,-464 2055,-464 2055,-476 2055,-476 2055,-482 2049,-488 2043,-488"/>
<text text-anchor="middle" x="2001" y="-467.5" font-family="sans" font-size="10.00">cnv_sv_pindel_call</text>
</g>
<!-- 5&#45;&gt;22 -->
<g id="edge64" class="edge">
<title>5&#45;&gt;22</title>
<path fill="none" stroke="grey" stroke-width="2" d="M2067.5,-716.94C2079.98,-707.99 2093.19,-695.79 2100,-681 2129.22,-617.58 2131.56,-582.87 2094,-524 2085.64,-510.89 2072.8,-500.69 2059.32,-492.9"/>
<polygon fill="grey" stroke="grey" stroke-width="2" points="2060.87,-489.76 2050.4,-488.12 2057.56,-495.93 2060.87,-489.76"/>
</g>
<!-- 23 -->
<g id="node24" class="node">
<title>23</title>
<path fill="none" stroke="#97d856" stroke-width="2" d="M2073.5,-560C2073.5,-560 1928.5,-560 1928.5,-560 1922.5,-560 1916.5,-554 1916.5,-548 1916.5,-548 1916.5,-536 1916.5,-536 1916.5,-530 1922.5,-524 1928.5,-524 1928.5,-524 2073.5,-524 2073.5,-524 2079.5,-524 2085.5,-530 2085.5,-536 2085.5,-536 2085.5,-548 2085.5,-548 2085.5,-554 2079.5,-560 2073.5,-560"/>
<text text-anchor="middle" x="2001" y="-539.5" font-family="sans" font-size="10.00">cnv_sv_generate_pindel_config</text>
</g>
<!-- 5&#45;&gt;23 -->
<g id="edge66" class="edge">
<title>5&#45;&gt;23</title>
<path fill="none" stroke="grey" stroke-width="2" d="M2056.6,-716.76C2065.53,-707.2 2075.29,-694.53 2080,-681 2092.42,-645.32 2097.78,-629.33 2080,-596 2073.31,-583.45 2062.18,-573.35 2050.36,-565.47"/>
<polygon fill="grey" stroke="grey" stroke-width="2" points="2052.03,-562.39 2041.68,-560.12 2048.36,-568.34 2052.03,-562.39"/>
</g>
<!-- 54 -->
<g id="node55" class="node">
<title>54</title>
<path fill="none" stroke="#5673d8" stroke-width="2" d="M2647.5,-560C2647.5,-560 2504.5,-560 2504.5,-560 2498.5,-560 2492.5,-554 2492.5,-548 2492.5,-548 2492.5,-536 2492.5,-536 2492.5,-530 2498.5,-524 2504.5,-524 2504.5,-524 2647.5,-524 2647.5,-524 2653.5,-524 2659.5,-530 2659.5,-536 2659.5,-536 2659.5,-548 2659.5,-548 2659.5,-554 2653.5,-560 2647.5,-560"/>
<text text-anchor="middle" x="2576" y="-539.5" font-family="sans" font-size="10.00">cnv_sv_manta_run_workflow_t</text>
</g>
<!-- 5&#45;&gt;54 -->
<g id="edge122" class="edge">
<title>5&#45;&gt;54</title>
<path fill="none" stroke="grey" stroke-width="2" d="M2109.83,-729.68C2203.42,-723.06 2361.11,-708.21 2412,-681 2456.69,-657.11 2448.97,-628.32 2488,-596 2501.76,-584.6 2518.24,-574.01 2533.19,-565.33"/>
<polygon fill="grey" stroke="grey" stroke-width="2" points="2535.29,-568.16 2542.26,-560.19 2531.83,-562.07 2535.29,-568.16"/>
</g>
<!-- 55 -->
<g id="node56" class="node">
<title>55</title>
<path fill="none" stroke="#565bd8" stroke-width="2" d="M2616.5,-656.5C2616.5,-656.5 2509.5,-656.5 2509.5,-656.5 2503.5,-656.5 2497.5,-650.5 2497.5,-644.5 2497.5,-644.5 2497.5,-632.5 2497.5,-632.5 2497.5,-626.5 2503.5,-620.5 2509.5,-620.5 2509.5,-620.5 2616.5,-620.5 2616.5,-620.5 2622.5,-620.5 2628.5,-626.5 2628.5,-632.5 2628.5,-632.5 2628.5,-644.5 2628.5,-644.5 2628.5,-650.5 2622.5,-656.5 2616.5,-656.5"/>
<text text-anchor="middle" x="2563" y="-636" font-family="sans" font-size="10.00">cnv_sv_config_manta_t</text>
</g>
<!-- 5&#45;&gt;55 -->
<g id="edge124" class="edge">
<title>5&#45;&gt;55</title>
<path fill="none" stroke="grey" stroke-width="2" d="M2109.6,-731.71C2196.34,-727.47 2346.23,-715.37 2470,-681 2487.66,-676.1 2506.26,-668.36 2522.16,-660.89"/>
<polygon fill="grey" stroke="grey" stroke-width="2" points="2523.68,-664.04 2531.17,-656.54 2520.64,-657.73 2523.68,-664.04"/>
</g>
<!-- 64 -->
<g id="node65" class="node">
<title>64</title>
<path fill="none" stroke="#d8ac56" stroke-width="2" d="M4090,-416C4090,-416 3956,-416 3956,-416 3950,-416 3944,-410 3944,-404 3944,-404 3944,-392 3944,-392 3944,-386 3950,-380 3956,-380 3956,-380 4090,-380 4090,-380 4096,-380 4102,-386 4102,-392 4102,-392 4102,-404 4102,-404 4102,-410 4096,-416 4090,-416"/>
<text text-anchor="middle" x="4023" y="-401" font-family="sans" font-size="10.00">compression_samtools_view</text>
<text text-anchor="middle" x="4023" y="-390" font-family="sans" font-size="10.00">file: NA12878_T</text>
</g>
<!-- 5&#45;&gt;64 -->
<g id="edge132" class="edge">
<title>5&#45;&gt;64</title>
<path fill="none" stroke="grey" stroke-width="2" d="M2109.88,-730.28C2222.78,-723.84 2448.37,-708.59 2638,-681 3139.37,-608.05 3732.94,-469.33 3943.84,-418.39"/>
<polygon fill="grey" stroke="grey" stroke-width="2" points="3944.69,-421.78 3953.59,-416.03 3943.05,-414.98 3944.69,-421.78"/>
</g>
<!-- 6 -->
<g id="node7" class="node">
<title>6</title>
<path fill="none" stroke="#56d892" stroke-width="2" d="M2090.5,-863C2090.5,-863 1985.5,-863 1985.5,-863 1979.5,-863 1973.5,-857 1973.5,-851 1973.5,-851 1973.5,-801 1973.5,-801 1973.5,-795 1979.5,-789 1985.5,-789 1985.5,-789 2090.5,-789 2090.5,-789 2096.5,-789 2102.5,-795 2102.5,-801 2102.5,-801 2102.5,-851 2102.5,-851 2102.5,-857 2096.5,-863 2090.5,-863"/>
<text text-anchor="middle" x="2038" y="-851" font-family="sans" font-size="10.00">prealignment_fastp_pe</text>
<text text-anchor="middle" x="2038" y="-840" font-family="sans" font-size="10.00">barcode: ACGGAACA</text>
<text text-anchor="middle" x="2038" y="-829" font-family="sans" font-size="10.00">flowcell: 1</text>
<text text-anchor="middle" x="2038" y="-818" font-family="sans" font-size="10.00">lane: L001</text>
<text text-anchor="middle" x="2038" y="-807" font-family="sans" font-size="10.00">sample: NA12878</text>
<text text-anchor="middle" x="2038" y="-796" font-family="sans" font-size="10.00">type: T</text>
</g>
<!-- 6&#45;&gt;5 -->
<g id="edge46" class="edge">
<title>6&#45;&gt;5</title>
<path fill="none" stroke="grey" stroke-width="2" d="M2038,-788.8C2038,-780.33 2038,-771.44 2038,-763.43"/>
<polygon fill="grey" stroke="grey" stroke-width="2" points="2041.5,-763.16 2038,-753.16 2034.5,-763.16 2041.5,-763.16"/>
</g>
<!-- 7&#45;&gt;1 -->
<g id="edge39" class="edge">
<title>7&#45;&gt;1</title>
<path fill="none" stroke="grey" stroke-width="2" d="M1081.89,-620.17C1098.15,-605.25 1121.78,-583.57 1139.86,-566.98"/>
<polygon fill="grey" stroke="grey" stroke-width="2" points="1142.23,-569.56 1147.23,-560.22 1137.49,-564.4 1142.23,-569.56"/>
</g>
<!-- 8&#45;&gt;1 -->
<g id="edge40" class="edge">
<title>8&#45;&gt;1</title>
<path fill="none" stroke="grey" stroke-width="2" d="M1250.11,-620.17C1233.85,-605.25 1210.22,-583.57 1192.14,-566.98"/>
<polygon fill="grey" stroke="grey" stroke-width="2" points="1194.51,-564.4 1184.77,-560.22 1189.77,-569.56 1194.51,-564.4"/>
</g>
<!-- 9&#45;&gt;1 -->
<g id="edge41" class="edge">
<title>9&#45;&gt;1</title>
<path fill="none" stroke="grey" stroke-width="2" d="M1423.18,-620.43C1404.31,-612.46 1381.19,-603.18 1360,-596 1310.56,-579.26 1252.71,-564 1213.13,-554.2"/>
<polygon fill="grey" stroke="grey" stroke-width="2" points="1213.77,-550.75 1203.23,-551.76 1212.1,-557.55 1213.77,-550.75"/>
</g>
<!-- 10&#45;&gt;1 -->
<g id="edge42" class="edge">
<title>10&#45;&gt;1</title>
<path fill="none" stroke="grey" stroke-width="2" d="M1941.77,-620.32C1922.03,-611.5 1896.68,-601.47 1873,-596 1746.92,-566.84 1350.97,-549.83 1213.55,-544.68"/>
<polygon fill="grey" stroke="grey" stroke-width="2" points="1213.46,-541.17 1203.34,-544.3 1213.21,-548.17 1213.46,-541.17"/>
</g>
<!-- 10&#45;&gt;23 -->
<g id="edge67" class="edge">
<title>10&#45;&gt;23</title>
<path fill="none" stroke="grey" stroke-width="2" d="M1981.4,-620.17C1984.95,-606.18 1990.02,-586.25 1994.1,-570.15"/>
<polygon fill="grey" stroke="grey" stroke-width="2" points="1997.56,-570.78 1996.63,-560.22 1990.77,-569.05 1997.56,-570.78"/>
</g>
<!-- 11&#45;&gt;1 -->
<g id="edge43" class="edge">
<title>11&#45;&gt;1</title>
<path fill="none" stroke="grey" stroke-width="2" d="M1623.72,-620.34C1606.21,-611.74 1583.92,-601.93 1563,-596 1439.84,-561.09 1288.52,-548.98 1213.22,-544.93"/>
<polygon fill="grey" stroke="grey" stroke-width="2" points="1213.28,-541.43 1203.11,-544.41 1212.92,-548.42 1213.28,-541.43"/>
</g>
<!-- 12&#45;&gt;1 -->
<g id="edge44" class="edge">
<title>12&#45;&gt;1</title>
<path fill="none" stroke="grey" stroke-width="2" d="M1790.81,-620.48C1779.08,-611.59 1763.58,-601.45 1748,-596 1649.48,-561.52 1333.37,-548.23 1213.08,-544.34"/>
<polygon fill="grey" stroke="grey" stroke-width="2" points="1213.17,-540.84 1203.07,-544.02 1212.95,-547.84 1213.17,-540.84"/>
</g>
<!-- 13 -->
<g id="node14" class="node">
<title>13</title>
<path fill="none" stroke="#d86656" stroke-width="2" d="M1239,-127C1239,-127 1157,-127 1157,-127 1151,-127 1145,-121 1145,-115 1145,-115 1145,-103 1145,-103 1145,-97 1151,-91 1157,-91 1157,-91 1239,-91 1239,-91 1245,-91 1251,-97 1251,-103 1251,-103 1251,-115 1251,-115 1251,-121 1245,-127 1239,-127"/>
<text text-anchor="middle" x="1198" y="-106.5" font-family="sans" font-size="10.00">cnv_sv_cnvkit_vcf</text>
</g>
<!-- 13&#45;&gt;0 -->
<g id="edge2" class="edge">
<title>13&#45;&gt;0</title>
<path fill="none" stroke="grey" stroke-width="2" d="M1251.1,-101.64C1316.26,-93.98 1430.15,-80.99 1528,-72 1784.68,-48.41 2094.38,-28.04 2199.8,-21.33"/>
<polygon fill="grey" stroke="grey" stroke-width="2" points="2200.17,-24.82 2209.93,-20.69 2199.72,-17.83 2200.17,-24.82"/>
</g>
<!-- 14 -->
<g id="node15" class="node">
<title>14</title>
<path fill="none" stroke="#56d89a" stroke-width="2" d="M741,-231.5C741,-231.5 657,-231.5 657,-231.5 651,-231.5 645,-225.5 645,-219.5 645,-219.5 645,-207.5 645,-207.5 645,-201.5 651,-195.5 657,-195.5 657,-195.5 741,-195.5 741,-195.5 747,-195.5 753,-201.5 753,-207.5 753,-207.5 753,-219.5 753,-219.5 753,-225.5 747,-231.5 741,-231.5"/>
<text text-anchor="middle" x="699" y="-211" font-family="sans" font-size="10.00">cnv_sv_cnvkit_call</text>
</g>
<!-- 14&#45;&gt;13 -->
<g id="edge53" class="edge">
<title>14&#45;&gt;13</title>
<path fill="none" stroke="grey" stroke-width="2" d="M729.68,-195.47C739.73,-190.48 751.11,-185.45 762,-182 890.77,-141.14 1048.68,-122.42 1134.72,-114.72"/>
<polygon fill="grey" stroke="grey" stroke-width="2" points="1135.19,-118.19 1144.85,-113.84 1134.58,-111.22 1135.19,-118.19"/>
</g>
<!-- 15&#45;&gt;14 -->
<g id="edge54" class="edge">
<title>15&#45;&gt;14</title>
<path fill="none" stroke="grey" stroke-width="2" d="M1918.87,-311.34C1706.71,-310.3 984.62,-302.5 762,-245 753.71,-242.86 745.22,-239.59 737.25,-235.97"/>
<polygon fill="grey" stroke="grey" stroke-width="2" points="738.72,-232.79 728.19,-231.61 735.69,-239.1 738.72,-232.79"/>
</g>
<!-- 25 -->
<g id="node26" class="node">
<title>25</title>
<path fill="none" stroke="#d87556" stroke-width="2" d="M185.5,-231.5C185.5,-231.5 78.5,-231.5 78.5,-231.5 72.5,-231.5 66.5,-225.5 66.5,-219.5 66.5,-219.5 66.5,-207.5 66.5,-207.5 66.5,-201.5 72.5,-195.5 78.5,-195.5 78.5,-195.5 185.5,-195.5 185.5,-195.5 191.5,-195.5 197.5,-201.5 197.5,-207.5 197.5,-207.5 197.5,-219.5 197.5,-219.5 197.5,-225.5 191.5,-231.5 185.5,-231.5"/>
<text text-anchor="middle" x="132" y="-211" font-family="sans" font-size="10.00">cnv_sv_cnvkit_diagram</text>
</g>
<!-- 15&#45;&gt;25 -->
<g id="edge69" class="edge">
<title>15&#45;&gt;25</title>
<path fill="none" stroke="grey" stroke-width="2" d="M1918.66,-310.51C1629.63,-305.55 376.15,-282.02 206,-245 195.92,-242.81 185.46,-239.32 175.69,-235.47"/>
<polygon fill="grey" stroke="grey" stroke-width="2" points="176.77,-232.13 166.19,-231.54 174.09,-238.6 176.77,-232.13"/>
</g>
<!-- 26 -->
<g id="node27" class="node">
<title>26</title>
<path fill="none" stroke="#56a9d8" stroke-width="2" d="M884.5,-231.5C884.5,-231.5 783.5,-231.5 783.5,-231.5 777.5,-231.5 771.5,-225.5 771.5,-219.5 771.5,-219.5 771.5,-207.5 771.5,-207.5 771.5,-201.5 777.5,-195.5 783.5,-195.5 783.5,-195.5 884.5,-195.5 884.5,-195.5 890.5,-195.5 896.5,-201.5 896.5,-207.5 896.5,-207.5 896.5,-219.5 896.5,-219.5 896.5,-225.5 890.5,-231.5 884.5,-231.5"/>
<text text-anchor="middle" x="834" y="-216.5" font-family="sans" font-size="10.00">cnv_sv_cnvkit_scatter</text>
<text text-anchor="middle" x="834" y="-205.5" font-family="sans" font-size="10.00">locus: chrX</text>
</g>
<!-- 15&#45;&gt;26 -->
<g id="edge70" class="edge">
<title>15&#45;&gt;26</title>
<path fill="none" stroke="grey" stroke-width="2" d="M1918.93,-310.5C1723.62,-306.78 1100.07,-291.46 905,-245 895.51,-242.74 885.68,-239.3 876.47,-235.54"/>
<polygon fill="grey" stroke="grey" stroke-width="2" points="877.71,-232.26 867.14,-231.53 874.95,-238.69 877.71,-232.26"/>
</g>
<!-- 27 -->
<g id="node28" class="node">
<title>27</title>
<path fill="none" stroke="#56a9d8" stroke-width="2" d="M1027.5,-231.5C1027.5,-231.5 926.5,-231.5 926.5,-231.5 920.5,-231.5 914.5,-225.5 914.5,-219.5 914.5,-219.5 914.5,-207.5 914.5,-207.5 914.5,-201.5 920.5,-195.5 926.5,-195.5 926.5,-195.5 1027.5,-195.5 1027.5,-195.5 1033.5,-195.5 1039.5,-201.5 1039.5,-207.5 1039.5,-207.5 1039.5,-219.5 1039.5,-219.5 1039.5,-225.5 1033.5,-231.5 1027.5,-231.5"/>
<text text-anchor="middle" x="977" y="-216.5" font-family="sans" font-size="10.00">cnv_sv_cnvkit_scatter</text>
<text text-anchor="middle" x="977" y="-205.5" font-family="sans" font-size="10.00">locus: chrY</text>
</g>
<!-- 15&#45;&gt;27 -->
<g id="edge72" class="edge">
<title>15&#45;&gt;27</title>
<path fill="none" stroke="grey" stroke-width="2" d="M1918.86,-309.85C1741.23,-304.48 1214.43,-285.47 1048,-245 1038.62,-242.72 1028.89,-239.31 1019.77,-235.58"/>
<polygon fill="grey" stroke="grey" stroke-width="2" points="1021.08,-232.34 1010.51,-231.62 1018.33,-238.77 1021.08,-232.34"/>
</g>
<!-- 28 -->
<g id="node29" class="node">
<title>28</title>
<path fill="none" stroke="#56a9d8" stroke-width="2" d="M1170.5,-231.5C1170.5,-231.5 1069.5,-231.5 1069.5,-231.5 1063.5,-231.5 1057.5,-225.5 1057.5,-219.5 1057.5,-219.5 1057.5,-207.5 1057.5,-207.5 1057.5,-201.5 1063.5,-195.5 1069.5,-195.5 1069.5,-195.5 1170.5,-195.5 1170.5,-195.5 1176.5,-195.5 1182.5,-201.5 1182.5,-207.5 1182.5,-207.5 1182.5,-219.5 1182.5,-219.5 1182.5,-225.5 1176.5,-231.5 1170.5,-231.5"/>
<text text-anchor="middle" x="1120" y="-216.5" font-family="sans" font-size="10.00">cnv_sv_cnvkit_scatter</text>
<text text-anchor="middle" x="1120" y="-205.5" font-family="sans" font-size="10.00">locus: chr1</text>
</g>
<!-- 15&#45;&gt;28 -->
<g id="edge74" class="edge">
<title>15&#45;&gt;28</title>
<path fill="none" stroke="grey" stroke-width="2" d="M1918.82,-308.96C1760.34,-301.77 1329.01,-279.51 1191,-245 1181.63,-242.66 1171.92,-239.22 1162.79,-235.49"/>
<polygon fill="grey" stroke="grey" stroke-width="2" points="1164.11,-232.24 1153.53,-231.53 1161.35,-238.68 1164.11,-232.24"/>
</g>
<!-- 29 -->
<g id="node30" class="node">
<title>29</title>
<path fill="none" stroke="#56a9d8" stroke-width="2" d="M1313.5,-231.5C1313.5,-231.5 1212.5,-231.5 1212.5,-231.5 1206.5,-231.5 1200.5,-225.5 1200.5,-219.5 1200.5,-219.5 1200.5,-207.5 1200.5,-207.5 1200.5,-201.5 1206.5,-195.5 1212.5,-195.5 1212.5,-195.5 1313.5,-195.5 1313.5,-195.5 1319.5,-195.5 1325.5,-201.5 1325.5,-207.5 1325.5,-207.5 1325.5,-219.5 1325.5,-219.5 1325.5,-225.5 1319.5,-231.5 1313.5,-231.5"/>
<text text-anchor="middle" x="1263" y="-216.5" font-family="sans" font-size="10.00">cnv_sv_cnvkit_scatter</text>
<text text-anchor="middle" x="1263" y="-205.5" font-family="sans" font-size="10.00">locus: chr2</text>
</g>
<!-- 15&#45;&gt;29 -->
<g id="edge76" class="edge">
<title>15&#45;&gt;29</title>
<path fill="none" stroke="grey" stroke-width="2" d="M1918.78,-311.32C1804.04,-309.69 1544.23,-299.65 1334,-245 1324.85,-242.62 1315.35,-239.24 1306.39,-235.59"/>
<polygon fill="grey" stroke="grey" stroke-width="2" points="1307.5,-232.25 1296.93,-231.55 1304.76,-238.69 1307.5,-232.25"/>
</g>
<!-- 30 -->
<g id="node31" class="node">
<title>30</title>
<path fill="none" stroke="#56a9d8" stroke-width="2" d="M1456.5,-231.5C1456.5,-231.5 1355.5,-231.5 1355.5,-231.5 1349.5,-231.5 1343.5,-225.5 1343.5,-219.5 1343.5,-219.5 1343.5,-207.5 1343.5,-207.5 1343.5,-201.5 1349.5,-195.5 1355.5,-195.5 1355.5,-195.5 1456.5,-195.5 1456.5,-195.5 1462.5,-195.5 1468.5,-201.5 1468.5,-207.5 1468.5,-207.5 1468.5,-219.5 1468.5,-219.5 1468.5,-225.5 1462.5,-231.5 1456.5,-231.5"/>
<text text-anchor="middle" x="1406" y="-216.5" font-family="sans" font-size="10.00">cnv_sv_cnvkit_scatter</text>
<text text-anchor="middle" x="1406" y="-205.5" font-family="sans" font-size="10.00">locus: chr3</text>
</g>
<!-- 15&#45;&gt;30 -->
<g id="edge78" class="edge">
<title>15&#45;&gt;30</title>
<path fill="none" stroke="grey" stroke-width="2" d="M1918.72,-308.88C1823.89,-303.52 1632.86,-287.94 1477,-245 1468.07,-242.54 1458.8,-239.19 1450.01,-235.61"/>
<polygon fill="grey" stroke="grey" stroke-width="2" points="1451.28,-232.34 1440.71,-231.66 1448.54,-238.79 1451.28,-232.34"/>
</g>
<!-- 31 -->
<g id="node32" class="node">
<title>31</title>
<path fill="none" stroke="#56a9d8" stroke-width="2" d="M1599.5,-231.5C1599.5,-231.5 1498.5,-231.5 1498.5,-231.5 1492.5,-231.5 1486.5,-225.5 1486.5,-219.5 1486.5,-219.5 1486.5,-207.5 1486.5,-207.5 1486.5,-201.5 1492.5,-195.5 1498.5,-195.5 1498.5,-195.5 1599.5,-195.5 1599.5,-195.5 1605.5,-195.5 1611.5,-201.5 1611.5,-207.5 1611.5,-207.5 1611.5,-219.5 1611.5,-219.5 1611.5,-225.5 1605.5,-231.5 1599.5,-231.5"/>
<text text-anchor="middle" x="1549" y="-216.5" font-family="sans" font-size="10.00">cnv_sv_cnvkit_scatter</text>
<text text-anchor="middle" x="1549" y="-205.5" font-family="sans" font-size="10.00">locus: chr4</text>
</g>
<!-- 15&#45;&gt;31 -->
<g id="edge80" class="edge">
<title>15&#45;&gt;31</title>
<path fill="none" stroke="grey" stroke-width="2" d="M1918.76,-304.6C1846.96,-295.3 1722.83,-276.21 1620,-245 1611.42,-242.4 1602.48,-239.07 1593.95,-235.58"/>
<polygon fill="grey" stroke="grey" stroke-width="2" points="1595.11,-232.27 1584.54,-231.6 1592.39,-238.72 1595.11,-232.27"/>
</g>
<!-- 32 -->
<g id="node33" class="node">
<title>32</title>
<path fill="none" stroke="#56a9d8" stroke-width="2" d="M1742.5,-231.5C1742.5,-231.5 1641.5,-231.5 1641.5,-231.5 1635.5,-231.5 1629.5,-225.5 1629.5,-219.5 1629.5,-219.5 1629.5,-207.5 1629.5,-207.5 1629.5,-201.5 1635.5,-195.5 1641.5,-195.5 1641.5,-195.5 1742.5,-195.5 1742.5,-195.5 1748.5,-195.5 1754.5,-201.5 1754.5,-207.5 1754.5,-207.5 1754.5,-219.5 1754.5,-219.5 1754.5,-225.5 1748.5,-231.5 1742.5,-231.5"/>
<text text-anchor="middle" x="1692" y="-216.5" font-family="sans" font-size="10.00">cnv_sv_cnvkit_scatter</text>
<text text-anchor="middle" x="1692" y="-205.5" font-family="sans" font-size="10.00">locus: chr5</text>
</g>
<!-- 15&#45;&gt;32 -->
<g id="edge82" class="edge">
<title>15&#45;&gt;32</title>
<path fill="none" stroke="grey" stroke-width="2" d="M1918.58,-294.96C1875.09,-282.41 1814.88,-264.11 1763,-245 1755.13,-242.1 1746.87,-238.8 1738.87,-235.46"/>
<polygon fill="grey" stroke="grey" stroke-width="2" points="1740.23,-232.23 1729.65,-231.55 1737.49,-238.68 1740.23,-232.23"/>
</g>
<!-- 33 -->
<g id="node34" class="node">
<title>33</title>
<path fill="none" stroke="#56a9d8" stroke-width="2" d="M1885.5,-231.5C1885.5,-231.5 1784.5,-231.5 1784.5,-231.5 1778.5,-231.5 1772.5,-225.5 1772.5,-219.5 1772.5,-219.5 1772.5,-207.5 1772.5,-207.5 1772.5,-201.5 1778.5,-195.5 1784.5,-195.5 1784.5,-195.5 1885.5,-195.5 1885.5,-195.5 1891.5,-195.5 1897.5,-201.5 1897.5,-207.5 1897.5,-207.5 1897.5,-219.5 1897.5,-219.5 1897.5,-225.5 1891.5,-231.5 1885.5,-231.5"/>
<text text-anchor="middle" x="1835" y="-216.5" font-family="sans" font-size="10.00">cnv_sv_cnvkit_scatter</text>
<text text-anchor="middle" x="1835" y="-205.5" font-family="sans" font-size="10.00">locus: chr6</text>
</g>
<!-- 15&#45;&gt;33 -->
<g id="edge84" class="edge">
<title>15&#45;&gt;33</title>
<path fill="none" stroke="grey" stroke-width="2" d="M1952.76,-294.38C1929.42,-278.55 1894.56,-254.9 1868.82,-237.44"/>
<polygon fill="grey" stroke="grey" stroke-width="2" points="1870.71,-234.49 1860.47,-231.77 1866.78,-240.28 1870.71,-234.49"/>
</g>
<!-- 34 -->
<g id="node35" class="node">
<title>34</title>
<path fill="none" stroke="#56a9d8" stroke-width="2" d="M2028.5,-231.5C2028.5,-231.5 1927.5,-231.5 1927.5,-231.5 1921.5,-231.5 1915.5,-225.5 1915.5,-219.5 1915.5,-219.5 1915.5,-207.5 1915.5,-207.5 1915.5,-201.5 1921.5,-195.5 1927.5,-195.5 1927.5,-195.5 2028.5,-195.5 2028.5,-195.5 2034.5,-195.5 2040.5,-201.5 2040.5,-207.5 2040.5,-207.5 2040.5,-219.5 2040.5,-219.5 2040.5,-225.5 2034.5,-231.5 2028.5,-231.5"/>
<text text-anchor="middle" x="1978" y="-216.5" font-family="sans" font-size="10.00">cnv_sv_cnvkit_scatter</text>
<text text-anchor="middle" x="1978" y="-205.5" font-family="sans" font-size="10.00">locus: chr7</text>
</g>
<!-- 15&#45;&gt;34 -->
<g id="edge86" class="edge">
<title>15&#45;&gt;34</title>
<path fill="none" stroke="grey" stroke-width="2" d="M1978,-294.16C1978,-279.68 1978,-258.76 1978,-242"/>
<polygon fill="grey" stroke="grey" stroke-width="2" points="1981.5,-241.69 1978,-231.69 1974.5,-241.69 1981.5,-241.69"/>
</g>
<!-- 35 -->
<g id="node36" class="node">
<title>35</title>
<path fill="none" stroke="#56a9d8" stroke-width="2" d="M2171.5,-231.5C2171.5,-231.5 2070.5,-231.5 2070.5,-231.5 2064.5,-231.5 2058.5,-225.5 2058.5,-219.5 2058.5,-219.5 2058.5,-207.5 2058.5,-207.5 2058.5,-201.5 2064.5,-195.5 2070.5,-195.5 2070.5,-195.5 2171.5,-195.5 2171.5,-195.5 2177.5,-195.5 2183.5,-201.5 2183.5,-207.5 2183.5,-207.5 2183.5,-219.5 2183.5,-219.5 2183.5,-225.5 2177.5,-231.5 2171.5,-231.5"/>
<text text-anchor="middle" x="2121" y="-216.5" font-family="sans" font-size="10.00">cnv_sv_cnvkit_scatter</text>
<text text-anchor="middle" x="2121" y="-205.5" font-family="sans" font-size="10.00">locus: chr8</text>
</g>
<!-- 15&#45;&gt;35 -->
<g id="edge88" class="edge">
<title>15&#45;&gt;35</title>
<path fill="none" stroke="grey" stroke-width="2" d="M2003.24,-294.38C2026.58,-278.55 2061.44,-254.9 2087.18,-237.44"/>
<polygon fill="grey" stroke="grey" stroke-width="2" points="2089.22,-240.28 2095.53,-231.77 2085.29,-234.49 2089.22,-240.28"/>
</g>
<!-- 36 -->
<g id="node37" class="node">
<title>36</title>
<path fill="none" stroke="#56a9d8" stroke-width="2" d="M2314.5,-231.5C2314.5,-231.5 2213.5,-231.5 2213.5,-231.5 2207.5,-231.5 2201.5,-225.5 2201.5,-219.5 2201.5,-219.5 2201.5,-207.5 2201.5,-207.5 2201.5,-201.5 2207.5,-195.5 2213.5,-195.5 2213.5,-195.5 2314.5,-195.5 2314.5,-195.5 2320.5,-195.5 2326.5,-201.5 2326.5,-207.5 2326.5,-207.5 2326.5,-219.5 2326.5,-219.5 2326.5,-225.5 2320.5,-231.5 2314.5,-231.5"/>
<text text-anchor="middle" x="2264" y="-216.5" font-family="sans" font-size="10.00">cnv_sv_cnvkit_scatter</text>
<text text-anchor="middle" x="2264" y="-205.5" font-family="sans" font-size="10.00">locus: chr9</text>
</g>
<!-- 15&#45;&gt;36 -->
<g id="edge90" class="edge">
<title>15&#45;&gt;36</title>
<path fill="none" stroke="grey" stroke-width="2" d="M2014.78,-294.38C2025.66,-289.68 2037.69,-284.83 2049,-281 2111.08,-260 2129.86,-265.84 2192,-245 2200.32,-242.21 2209.03,-238.88 2217.41,-235.47"/>
<polygon fill="grey" stroke="grey" stroke-width="2" points="2218.8,-238.68 2226.68,-231.6 2216.1,-232.22 2218.8,-238.68"/>
</g>
<!-- 37 -->
<g id="node38" class="node">
<title>37</title>
<path fill="none" stroke="#56a9d8" stroke-width="2" d="M2457.5,-231.5C2457.5,-231.5 2356.5,-231.5 2356.5,-231.5 2350.5,-231.5 2344.5,-225.5 2344.5,-219.5 2344.5,-219.5 2344.5,-207.5 2344.5,-207.5 2344.5,-201.5 2350.5,-195.5 2356.5,-195.5 2356.5,-195.5 2457.5,-195.5 2457.5,-195.5 2463.5,-195.5 2469.5,-201.5 2469.5,-207.5 2469.5,-207.5 2469.5,-219.5 2469.5,-219.5 2469.5,-225.5 2463.5,-231.5 2457.5,-231.5"/>
<text text-anchor="middle" x="2407" y="-216.5" font-family="sans" font-size="10.00">cnv_sv_cnvkit_scatter</text>
<text text-anchor="middle" x="2407" y="-205.5" font-family="sans" font-size="10.00">locus: chr10</text>
</g>
<!-- 15&#45;&gt;37 -->
<g id="edge92" class="edge">
<title>15&#45;&gt;37</title>
<path fill="none" stroke="grey" stroke-width="2" d="M2012.33,-294.45C2023.75,-289.41 2036.7,-284.34 2049,-281 2172.63,-247.39 2211.29,-278.3 2335,-245 2344.24,-242.51 2353.86,-239.08 2362.93,-235.41"/>
<polygon fill="grey" stroke="grey" stroke-width="2" points="2364.3,-238.64 2372.16,-231.54 2361.59,-232.18 2364.3,-238.64"/>
</g>
<!-- 38 -->
<g id="node39" class="node">
<title>38</title>
<path fill="none" stroke="#56a9d8" stroke-width="2" d="M2600.5,-231.5C2600.5,-231.5 2499.5,-231.5 2499.5,-231.5 2493.5,-231.5 2487.5,-225.5 2487.5,-219.5 2487.5,-219.5 2487.5,-207.5 2487.5,-207.5 2487.5,-201.5 2493.5,-195.5 2499.5,-195.5 2499.5,-195.5 2600.5,-195.5 2600.5,-195.5 2606.5,-195.5 2612.5,-201.5 2612.5,-207.5 2612.5,-207.5 2612.5,-219.5 2612.5,-219.5 2612.5,-225.5 2606.5,-231.5 2600.5,-231.5"/>
<text text-anchor="middle" x="2550" y="-216.5" font-family="sans" font-size="10.00">cnv_sv_cnvkit_scatter</text>
<text text-anchor="middle" x="2550" y="-205.5" font-family="sans" font-size="10.00">locus: chr11</text>
</g>
<!-- 15&#45;&gt;38 -->
<g id="edge94" class="edge">
<title>15&#45;&gt;38</title>
<path fill="none" stroke="grey" stroke-width="2" d="M2011.53,-294.47C2023.12,-289.3 2036.37,-284.15 2049,-281 2234.64,-234.64 2292.25,-290.89 2478,-245 2487.49,-242.66 2497.33,-239.22 2506.59,-235.49"/>
<polygon fill="grey" stroke="grey" stroke-width="2" points="2508.12,-238.64 2515.97,-231.53 2505.4,-232.19 2508.12,-238.64"/>
</g>
<!-- 39 -->
<g id="node40" class="node">
<title>39</title>
<path fill="none" stroke="#56a9d8" stroke-width="2" d="M2743.5,-231.5C2743.5,-231.5 2642.5,-231.5 2642.5,-231.5 2636.5,-231.5 2630.5,-225.5 2630.5,-219.5 2630.5,-219.5 2630.5,-207.5 2630.5,-207.5 2630.5,-201.5 2636.5,-195.5 2642.5,-195.5 2642.5,-195.5 2743.5,-195.5 2743.5,-195.5 2749.5,-195.5 2755.5,-201.5 2755.5,-207.5 2755.5,-207.5 2755.5,-219.5 2755.5,-219.5 2755.5,-225.5 2749.5,-231.5 2743.5,-231.5"/>
<text text-anchor="middle" x="2693" y="-216.5" font-family="sans" font-size="10.00">cnv_sv_cnvkit_scatter</text>
<text text-anchor="middle" x="2693" y="-205.5" font-family="sans" font-size="10.00">locus: chr12</text>
</g>
<!-- 15&#45;&gt;39 -->
<g id="edge96" class="edge">
<title>15&#45;&gt;39</title>
<path fill="none" stroke="grey" stroke-width="2" d="M2011.14,-294.47C2022.81,-289.24 2036.21,-284.05 2049,-281 2297.2,-221.77 2373.8,-304.23 2622,-245 2631.49,-242.74 2641.32,-239.3 2650.53,-235.53"/>
<polygon fill="grey" stroke="grey" stroke-width="2" points="2652.05,-238.69 2659.86,-231.53 2649.29,-232.25 2652.05,-238.69"/>
</g>
<!-- 40 -->
<g id="node41" class="node">
<title>40</title>
<path fill="none" stroke="#56a9d8" stroke-width="2" d="M2886.5,-231.5C2886.5,-231.5 2785.5,-231.5 2785.5,-231.5 2779.5,-231.5 2773.5,-225.5 2773.5,-219.5 2773.5,-219.5 2773.5,-207.5 2773.5,-207.5 2773.5,-201.5 2779.5,-195.5 2785.5,-195.5 2785.5,-195.5 2886.5,-195.5 2886.5,-195.5 2892.5,-195.5 2898.5,-201.5 2898.5,-207.5 2898.5,-207.5 2898.5,-219.5 2898.5,-219.5 2898.5,-225.5 2892.5,-231.5 2886.5,-231.5"/>
<text text-anchor="middle" x="2836" y="-216.5" font-family="sans" font-size="10.00">cnv_sv_cnvkit_scatter</text>
<text text-anchor="middle" x="2836" y="-205.5" font-family="sans" font-size="10.00">locus: chr13</text>
</g>
<!-- 15&#45;&gt;40 -->
<g id="edge98" class="edge">
<title>15&#45;&gt;40</title>
<path fill="none" stroke="grey" stroke-width="2" d="M2011.12,-294.38C2022.79,-289.14 2036.19,-283.97 2049,-281 2359.38,-208.98 2454.62,-317.02 2765,-245 2774.51,-242.79 2784.34,-239.38 2793.55,-235.62"/>
<polygon fill="grey" stroke="grey" stroke-width="2" points="2795.07,-238.78 2802.88,-231.62 2792.31,-232.34 2795.07,-238.78"/>
</g>
<!-- 41 -->
<g id="node42" class="node">
<title>41</title>
<path fill="none" stroke="#56a9d8" stroke-width="2" d="M3029.5,-231.5C3029.5,-231.5 2928.5,-231.5 2928.5,-231.5 2922.5,-231.5 2916.5,-225.5 2916.5,-219.5 2916.5,-219.5 2916.5,-207.5 2916.5,-207.5 2916.5,-201.5 2922.5,-195.5 2928.5,-195.5 2928.5,-195.5 3029.5,-195.5 3029.5,-195.5 3035.5,-195.5 3041.5,-201.5 3041.5,-207.5 3041.5,-207.5 3041.5,-219.5 3041.5,-219.5 3041.5,-225.5 3035.5,-231.5 3029.5,-231.5"/>
<text text-anchor="middle" x="2979" y="-216.5" font-family="sans" font-size="10.00">cnv_sv_cnvkit_scatter</text>
<text text-anchor="middle" x="2979" y="-205.5" font-family="sans" font-size="10.00">locus: chr14</text>
</g>
<!-- 15&#45;&gt;41 -->
<g id="edge100" class="edge">
<title>15&#45;&gt;41</title>
<path fill="none" stroke="grey" stroke-width="2" d="M2010.75,-294.48C2022.5,-289.18 2036.05,-283.95 2049,-281 2421.58,-196.19 2535.42,-329.81 2908,-245 2917.61,-242.81 2927.55,-239.37 2936.85,-235.57"/>
<polygon fill="grey" stroke="grey" stroke-width="2" points="2938.45,-238.69 2946.25,-231.52 2935.69,-232.26 2938.45,-238.69"/>
</g>
<!-- 42 -->
<g id="node43" class="node">
<title>42</title>
<path fill="none" stroke="#56a9d8" stroke-width="2" d="M3172.5,-231.5C3172.5,-231.5 3071.5,-231.5 3071.5,-231.5 3065.5,-231.5 3059.5,-225.5 3059.5,-219.5 3059.5,-219.5 3059.5,-207.5 3059.5,-207.5 3059.5,-201.5 3065.5,-195.5 3071.5,-195.5 3071.5,-195.5 3172.5,-195.5 3172.5,-195.5 3178.5,-195.5 3184.5,-201.5 3184.5,-207.5 3184.5,-207.5 3184.5,-219.5 3184.5,-219.5 3184.5,-225.5 3178.5,-231.5 3172.5,-231.5"/>
<text text-anchor="middle" x="3122" y="-216.5" font-family="sans" font-size="10.00">cnv_sv_cnvkit_scatter</text>
<text text-anchor="middle" x="3122" y="-205.5" font-family="sans" font-size="10.00">locus: chr15</text>
</g>
<!-- 15&#45;&gt;42 -->
<g id="edge102" class="edge">
<title>15&#45;&gt;42</title>
<path fill="none" stroke="grey" stroke-width="2" d="M2010.74,-294.44C2022.49,-289.13 2036.04,-283.91 2049,-281 2483.8,-183.39 2616.2,-342.61 3051,-245 3060.62,-242.84 3070.56,-239.41 3079.86,-235.61"/>
<polygon fill="grey" stroke="grey" stroke-width="2" points="3081.46,-238.73 3089.26,-231.56 3078.7,-232.3 3081.46,-238.73"/>
</g>
<!-- 43 -->
<g id="node44" class="node">
<title>43</title>
<path fill="none" stroke="#56a9d8" stroke-width="2" d="M3315.5,-231.5C3315.5,-231.5 3214.5,-231.5 3214.5,-231.5 3208.5,-231.5 3202.5,-225.5 3202.5,-219.5 3202.5,-219.5 3202.5,-207.5 3202.5,-207.5 3202.5,-201.5 3208.5,-195.5 3214.5,-195.5 3214.5,-195.5 3315.5,-195.5 3315.5,-195.5 3321.5,-195.5 3327.5,-201.5 3327.5,-207.5 3327.5,-207.5 3327.5,-219.5 3327.5,-219.5 3327.5,-225.5 3321.5,-231.5 3315.5,-231.5"/>
<text text-anchor="middle" x="3265" y="-216.5" font-family="sans" font-size="10.00">cnv_sv_cnvkit_scatter</text>
<text text-anchor="middle" x="3265" y="-205.5" font-family="sans" font-size="10.00">locus: chr16</text>
</g>
<!-- 15&#45;&gt;43 -->
<g id="edge104" class="edge">
<title>15&#45;&gt;43</title>
<path fill="none" stroke="grey" stroke-width="2" d="M2010.73,-294.41C2022.48,-289.09 2036.03,-283.88 2049,-281 2297.51,-225.8 2945.49,-300.2 3194,-245 3203.62,-242.86 3213.57,-239.44 3222.86,-235.64"/>
<polygon fill="grey" stroke="grey" stroke-width="2" points="3224.47,-238.76 3232.27,-231.59 3221.7,-232.33 3224.47,-238.76"/>
</g>
<!-- 44 -->
<g id="node45" class="node">
<title>44</title>
<path fill="none" stroke="#56a9d8" stroke-width="2" d="M3458.5,-231.5C3458.5,-231.5 3357.5,-231.5 3357.5,-231.5 3351.5,-231.5 3345.5,-225.5 3345.5,-219.5 3345.5,-219.5 3345.5,-207.5 3345.5,-207.5 3345.5,-201.5 3351.5,-195.5 3357.5,-195.5 3357.5,-195.5 3458.5,-195.5 3458.5,-195.5 3464.5,-195.5 3470.5,-201.5 3470.5,-207.5 3470.5,-207.5 3470.5,-219.5 3470.5,-219.5 3470.5,-225.5 3464.5,-231.5 3458.5,-231.5"/>
<text text-anchor="middle" x="3408" y="-216.5" font-family="sans" font-size="10.00">cnv_sv_cnvkit_scatter</text>
<text text-anchor="middle" x="3408" y="-205.5" font-family="sans" font-size="10.00">locus: chr17</text>
</g>
<!-- 15&#45;&gt;44 -->
<g id="edge106" class="edge">
<title>15&#45;&gt;44</title>
<path fill="none" stroke="grey" stroke-width="2" d="M2010.72,-294.38C2022.47,-289.07 2036.03,-283.86 2049,-281 2328.63,-219.4 3057.37,-306.6 3337,-245 3346.63,-242.88 3356.58,-239.46 3365.87,-235.67"/>
<polygon fill="grey" stroke="grey" stroke-width="2" points="3367.48,-238.79 3375.28,-231.62 3364.71,-232.36 3367.48,-238.79"/>
</g>
<!-- 45 -->
<g id="node46" class="node">
<title>45</title>
<path fill="none" stroke="#56a9d8" stroke-width="2" d="M3601.5,-231.5C3601.5,-231.5 3500.5,-231.5 3500.5,-231.5 3494.5,-231.5 3488.5,-225.5 3488.5,-219.5 3488.5,-219.5 3488.5,-207.5 3488.5,-207.5 3488.5,-201.5 3494.5,-195.5 3500.5,-195.5 3500.5,-195.5 3601.5,-195.5 3601.5,-195.5 3607.5,-195.5 3613.5,-201.5 3613.5,-207.5 3613.5,-207.5 3613.5,-219.5 3613.5,-219.5 3613.5,-225.5 3607.5,-231.5 3601.5,-231.5"/>
<text text-anchor="middle" x="3551" y="-216.5" font-family="sans" font-size="10.00">cnv_sv_cnvkit_scatter</text>
<text text-anchor="middle" x="3551" y="-205.5" font-family="sans" font-size="10.00">locus: chr18</text>
</g>
<!-- 15&#45;&gt;45 -->
<g id="edge108" class="edge">
<title>15&#45;&gt;45</title>
<path fill="none" stroke="grey" stroke-width="2" d="M2010.72,-294.36C2022.47,-289.04 2036.03,-283.84 2049,-281 2359.75,-213 3169.25,-313 3480,-245 3489.63,-242.89 3499.58,-239.48 3508.87,-235.69"/>
<polygon fill="grey" stroke="grey" stroke-width="2" points="3510.48,-238.81 3518.28,-231.64 3507.71,-232.38 3510.48,-238.81"/>
</g>
<!-- 46 -->
<g id="node47" class="node">
<title>46</title>
<path fill="none" stroke="#56a9d8" stroke-width="2" d="M3744.5,-231.5C3744.5,-231.5 3643.5,-231.5 3643.5,-231.5 3637.5,-231.5 3631.5,-225.5 3631.5,-219.5 3631.5,-219.5 3631.5,-207.5 3631.5,-207.5 3631.5,-201.5 3637.5,-195.5 3643.5,-195.5 3643.5,-195.5 3744.5,-195.5 3744.5,-195.5 3750.5,-195.5 3756.5,-201.5 3756.5,-207.5 3756.5,-207.5 3756.5,-219.5 3756.5,-219.5 3756.5,-225.5 3750.5,-231.5 3744.5,-231.5"/>
<text text-anchor="middle" x="3694" y="-216.5" font-family="sans" font-size="10.00">cnv_sv_cnvkit_scatter</text>
<text text-anchor="middle" x="3694" y="-205.5" font-family="sans" font-size="10.00">locus: chr19</text>
</g>
<!-- 15&#45;&gt;46 -->
<g id="edge110" class="edge">
<title>15&#45;&gt;46</title>
<path fill="none" stroke="grey" stroke-width="2" d="M2010.71,-294.34C2022.46,-289.03 2036.02,-283.82 2049,-281 2390.87,-206.59 3281.13,-319.41 3623,-245 3632.63,-242.9 3642.58,-239.5 3651.88,-235.71"/>
<polygon fill="grey" stroke="grey" stroke-width="2" points="3653.48,-238.83 3661.29,-231.66 3650.72,-232.4 3653.48,-238.83"/>
</g>
<!-- 47 -->
<g id="node48" class="node">
<title>47</title>
<path fill="none" stroke="#56a9d8" stroke-width="2" d="M328.5,-231.5C328.5,-231.5 227.5,-231.5 227.5,-231.5 221.5,-231.5 215.5,-225.5 215.5,-219.5 215.5,-219.5 215.5,-207.5 215.5,-207.5 215.5,-201.5 221.5,-195.5 227.5,-195.5 227.5,-195.5 328.5,-195.5 328.5,-195.5 334.5,-195.5 340.5,-201.5 340.5,-207.5 340.5,-207.5 340.5,-219.5 340.5,-219.5 340.5,-225.5 334.5,-231.5 328.5,-231.5"/>
<text text-anchor="middle" x="278" y="-216.5" font-family="sans" font-size="10.00">cnv_sv_cnvkit_scatter</text>
<text text-anchor="middle" x="278" y="-205.5" font-family="sans" font-size="10.00">locus: chr20</text>
</g>
<!-- 15&#45;&gt;47 -->
<g id="edge112" class="edge">
<title>15&#45;&gt;47</title>
<path fill="none" stroke="grey" stroke-width="2" d="M1918.69,-311.96C1663.31,-313.48 656.59,-314.84 349,-245 339.39,-242.82 329.44,-239.38 320.15,-235.58"/>
<polygon fill="grey" stroke="grey" stroke-width="2" points="321.31,-232.27 310.74,-231.53 318.54,-238.7 321.31,-232.27"/>
</g>
<!-- 48 -->
<g id="node49" class="node">
<title>48</title>
<path fill="none" stroke="#56a9d8" stroke-width="2" d="M471.5,-231.5C471.5,-231.5 370.5,-231.5 370.5,-231.5 364.5,-231.5 358.5,-225.5 358.5,-219.5 358.5,-219.5 358.5,-207.5 358.5,-207.5 358.5,-201.5 364.5,-195.5 370.5,-195.5 370.5,-195.5 471.5,-195.5 471.5,-195.5 477.5,-195.5 483.5,-201.5 483.5,-207.5 483.5,-207.5 483.5,-219.5 483.5,-219.5 483.5,-225.5 477.5,-231.5 471.5,-231.5"/>
<text text-anchor="middle" x="421" y="-216.5" font-family="sans" font-size="10.00">cnv_sv_cnvkit_scatter</text>
<text text-anchor="middle" x="421" y="-205.5" font-family="sans" font-size="10.00">locus: chr21</text>
</g>
<!-- 15&#45;&gt;48 -->
<g id="edge114" class="edge">
<title>15&#45;&gt;48</title>
<path fill="none" stroke="grey" stroke-width="2" d="M1918.68,-311.68C1677.55,-311.99 770.47,-308.8 492,-245 482.49,-242.82 472.65,-239.42 463.44,-235.66"/>
<polygon fill="grey" stroke="grey" stroke-width="2" points="464.68,-232.38 454.11,-231.66 461.92,-238.82 464.68,-232.38"/>
</g>
<!-- 49 -->
<g id="node50" class="node">
<title>49</title>
<path fill="none" stroke="#56a9d8" stroke-width="2" d="M614.5,-231.5C614.5,-231.5 513.5,-231.5 513.5,-231.5 507.5,-231.5 501.5,-225.5 501.5,-219.5 501.5,-219.5 501.5,-207.5 501.5,-207.5 501.5,-201.5 507.5,-195.5 513.5,-195.5 513.5,-195.5 614.5,-195.5 614.5,-195.5 620.5,-195.5 626.5,-201.5 626.5,-207.5 626.5,-207.5 626.5,-219.5 626.5,-219.5 626.5,-225.5 620.5,-231.5 614.5,-231.5"/>
<text text-anchor="middle" x="564" y="-216.5" font-family="sans" font-size="10.00">cnv_sv_cnvkit_scatter</text>
<text text-anchor="middle" x="564" y="-205.5" font-family="sans" font-size="10.00">locus: chr22</text>
</g>
<!-- 15&#45;&gt;49 -->
<g id="edge116" class="edge">
<title>15&#45;&gt;49</title>
<path fill="none" stroke="grey" stroke-width="2" d="M1918.77,-311.31C1692.84,-310.17 885.41,-302.11 636,-245 626.38,-242.8 616.41,-239.38 607.07,-235.62"/>
<polygon fill="grey" stroke="grey" stroke-width="2" points="608.18,-232.29 597.61,-231.62 605.45,-238.74 608.18,-232.29"/>
</g>
<!-- 16 -->
<g id="node17" class="node">
<title>16</title>
<path fill="none" stroke="#d89c56" stroke-width="2" d="M2165.5,-330.5C2165.5,-330.5 2070.5,-330.5 2070.5,-330.5 2064.5,-330.5 2058.5,-324.5 2058.5,-318.5 2058.5,-318.5 2058.5,-306.5 2058.5,-306.5 2058.5,-300.5 2064.5,-294.5 2070.5,-294.5 2070.5,-294.5 2165.5,-294.5 2165.5,-294.5 2171.5,-294.5 2177.5,-300.5 2177.5,-306.5 2177.5,-306.5 2177.5,-318.5 2177.5,-318.5 2177.5,-324.5 2171.5,-330.5 2165.5,-330.5"/>
<text text-anchor="middle" x="2118" y="-310" font-family="sans" font-size="10.00">cnv_sv_germline_vcf</text>
</g>
<!-- 16&#45;&gt;14 -->
<g id="edge55" class="edge">
<title>16&#45;&gt;14</title>
<path fill="none" stroke="grey" stroke-width="2" d="M2084.79,-294.38C2072.87,-289.07 2059.13,-283.86 2046,-281 1767.09,-220.28 1039.3,-312.7 762,-245 753.6,-242.95 745,-239.68 736.97,-236.03"/>
<polygon fill="grey" stroke="grey" stroke-width="2" points="738.36,-232.82 727.83,-231.62 735.32,-239.12 738.36,-232.82"/>
</g>
<!-- 16&#45;&gt;26 -->
<g id="edge71" class="edge">
<title>16&#45;&gt;26</title>
<path fill="none" stroke="grey" stroke-width="2" d="M2084.79,-294.41C2072.87,-289.1 2059.13,-283.88 2046,-281 1798.22,-226.6 1152.64,-300.02 905,-245 895.38,-242.86 885.43,-239.44 876.14,-235.64"/>
<polygon fill="grey" stroke="grey" stroke-width="2" points="877.3,-232.33 866.73,-231.59 874.53,-238.76 877.3,-232.33"/>
</g>
<!-- 16&#45;&gt;27 -->
<g id="edge73" class="edge">
<title>16&#45;&gt;27</title>
<path fill="none" stroke="grey" stroke-width="2" d="M2084.78,-294.44C2072.86,-289.13 2059.12,-283.91 2046,-281 1612.7,-184.84 1481.06,-342.25 1048,-245 1038.38,-242.84 1028.44,-239.41 1019.14,-235.61"/>
<polygon fill="grey" stroke="grey" stroke-width="2" points="1020.31,-232.3 1009.74,-231.56 1017.54,-238.73 1020.31,-232.3"/>
</g>
<!-- 16&#45;&gt;28 -->
<g id="edge75" class="edge">
<title>16&#45;&gt;28</title>
<path fill="none" stroke="grey" stroke-width="2" d="M2084.77,-294.49C2072.85,-289.18 2059.11,-283.95 2046,-281 1674.95,-197.48 1561.84,-329.45 1191,-245 1181.39,-242.81 1171.45,-239.37 1162.15,-235.57"/>
<polygon fill="grey" stroke="grey" stroke-width="2" points="1163.32,-232.26 1152.75,-231.52 1160.55,-238.69 1163.32,-232.26"/>
</g>
<!-- 16&#45;&gt;29 -->
<g id="edge77" class="edge">
<title>16&#45;&gt;29</title>
<path fill="none" stroke="grey" stroke-width="2" d="M2084.39,-294.39C2072.56,-289.14 2058.97,-283.98 2046,-281 1737.18,-210.12 1642.64,-316.66 1334,-245 1324.5,-242.79 1314.66,-239.38 1305.45,-235.62"/>
<polygon fill="grey" stroke="grey" stroke-width="2" points="1306.69,-232.34 1296.12,-231.62 1303.93,-238.78 1306.69,-232.34"/>
</g>
<!-- 16&#45;&gt;30 -->
<g id="edge79" class="edge">
<title>16&#45;&gt;30</title>
<path fill="none" stroke="grey" stroke-width="2" d="M2084.37,-294.48C2072.53,-289.24 2058.95,-284.06 2046,-281 1799.39,-222.75 1723.46,-303.87 1477,-245 1467.51,-242.73 1457.68,-239.29 1448.47,-235.53"/>
<polygon fill="grey" stroke="grey" stroke-width="2" points="1449.71,-232.25 1439.14,-231.52 1446.95,-238.68 1449.71,-232.25"/>
</g>
<!-- 16&#45;&gt;31 -->
<g id="edge81" class="edge">
<title>16&#45;&gt;31</title>
<path fill="none" stroke="grey" stroke-width="2" d="M2083.97,-294.48C2072.22,-289.31 2058.78,-284.16 2046,-281 1861.55,-235.37 1804.33,-291.09 1620,-245 1610.63,-242.66 1600.92,-239.22 1591.79,-235.49"/>
<polygon fill="grey" stroke="grey" stroke-width="2" points="1593.11,-232.24 1582.53,-231.53 1590.35,-238.68 1593.11,-232.24"/>
</g>
<!-- 16&#45;&gt;32 -->
<g id="edge83" class="edge">
<title>16&#45;&gt;32</title>
<path fill="none" stroke="grey" stroke-width="2" d="M2083.16,-294.47C2071.58,-289.43 2058.45,-284.36 2046,-281 1923.59,-247.96 1885.33,-278.35 1763,-245 1753.97,-242.54 1744.59,-239.15 1735.72,-235.53"/>
<polygon fill="grey" stroke="grey" stroke-width="2" points="1736.91,-232.23 1726.33,-231.54 1734.17,-238.67 1736.91,-232.23"/>
</g>
<!-- 16&#45;&gt;33 -->
<g id="edge85" class="edge">
<title>16&#45;&gt;33</title>
<path fill="none" stroke="grey" stroke-width="2" d="M2080.67,-294.44C2069.63,-289.74 2057.44,-284.87 2046,-281 1985.14,-260.41 1966.81,-265.74 1906,-245 1897.88,-242.23 1889.38,-238.94 1881.21,-235.56"/>
<polygon fill="grey" stroke="grey" stroke-width="2" points="1882.37,-232.25 1871.8,-231.58 1879.64,-238.7 1882.37,-232.25"/>
</g>
<!-- 16&#45;&gt;34 -->
<g id="edge87" class="edge">
<title>16&#45;&gt;34</title>
<path fill="none" stroke="grey" stroke-width="2" d="M2093.29,-294.38C2070.54,-278.62 2036.6,-255.1 2011.44,-237.67"/>
<polygon fill="grey" stroke="grey" stroke-width="2" points="2013.14,-234.59 2002.93,-231.77 2009.16,-240.35 2013.14,-234.59"/>
</g>
<!-- 16&#45;&gt;35 -->
<g id="edge89" class="edge">
<title>16&#45;&gt;35</title>
<path fill="none" stroke="grey" stroke-width="2" d="M2118.54,-294.16C2118.98,-279.68 2119.63,-258.76 2120.15,-242"/>
<polygon fill="grey" stroke="grey" stroke-width="2" points="2123.66,-241.79 2120.47,-231.69 2116.66,-241.58 2123.66,-241.79"/>
</g>
<!-- 16&#45;&gt;36 -->
<g id="edge91" class="edge">
<title>16&#45;&gt;36</title>
<path fill="none" stroke="grey" stroke-width="2" d="M2143.77,-294.38C2167.6,-278.55 2203.19,-254.9 2229.48,-237.44"/>
<polygon fill="grey" stroke="grey" stroke-width="2" points="2231.61,-240.22 2238,-231.77 2227.73,-234.39 2231.61,-240.22"/>
</g>
<!-- 16&#45;&gt;37 -->
<g id="edge93" class="edge">
<title>16&#45;&gt;37</title>
<path fill="none" stroke="grey" stroke-width="2" d="M2177.96,-294.93C2221.84,-282.37 2282.61,-264.07 2335,-245 2342.98,-242.1 2351.35,-238.79 2359.46,-235.46"/>
<polygon fill="grey" stroke="grey" stroke-width="2" points="2360.93,-238.63 2368.8,-231.55 2358.23,-232.18 2360.93,-238.63"/>
</g>
<!-- 16&#45;&gt;38 -->
<g id="edge95" class="edge">
<title>16&#45;&gt;38</title>
<path fill="none" stroke="grey" stroke-width="2" d="M2177.55,-304.55C2249.72,-295.2 2374.52,-276.07 2478,-245 2486.78,-242.36 2495.95,-238.99 2504.68,-235.46"/>
<polygon fill="grey" stroke="grey" stroke-width="2" points="2506.06,-238.68 2513.94,-231.59 2503.36,-232.22 2506.06,-238.68"/>
</g>
<!-- 16&#45;&gt;39 -->
<g id="edge97" class="edge">
<title>16&#45;&gt;39</title>
<path fill="none" stroke="grey" stroke-width="2" d="M2177.63,-308.92C2273.04,-303.63 2465.21,-288.13 2622,-245 2631.02,-242.52 2640.4,-239.12 2649.27,-235.5"/>
<polygon fill="grey" stroke="grey" stroke-width="2" points="2650.82,-238.64 2658.66,-231.51 2648.08,-232.2 2650.82,-238.64"/>
</g>
<!-- 16&#45;&gt;40 -->
<g id="edge99" class="edge">
<title>16&#45;&gt;40</title>
<path fill="none" stroke="grey" stroke-width="2" d="M2177.74,-307.68C2316.02,-298.47 2654.68,-273.65 2765,-245 2774.15,-242.62 2783.65,-239.24 2792.61,-235.59"/>
<polygon fill="grey" stroke="grey" stroke-width="2" points="2794.25,-238.7 2802.07,-231.56 2791.5,-232.26 2794.25,-238.7"/>
</g>
<!-- 16&#45;&gt;41 -->
<g id="edge101" class="edge">
<title>16&#45;&gt;41</title>
<path fill="none" stroke="grey" stroke-width="2" d="M2177.8,-306.99C2355.89,-293.5 2872.68,-253.83 2908,-245 2917.37,-242.66 2927.09,-239.22 2936.21,-235.49"/>
<polygon fill="grey" stroke="grey" stroke-width="2" points="2937.65,-238.68 2945.47,-231.53 2934.9,-232.25 2937.65,-238.68"/>
</g>
<!-- 16&#45;&gt;42 -->
<g id="edge103" class="edge">
<title>16&#45;&gt;42</title>
<path fill="none" stroke="grey" stroke-width="2" d="M2177.51,-306.75C2255.14,-300.59 2395.2,-289.62 2515,-281 2753.14,-263.86 2818.88,-300.92 3051,-245 3060.39,-242.74 3070.11,-239.34 3079.24,-235.61"/>
<polygon fill="grey" stroke="grey" stroke-width="2" points="3080.68,-238.81 3088.5,-231.65 3077.93,-232.37 3080.68,-238.81"/>
</g>
<!-- 16&#45;&gt;43 -->
<g id="edge105" class="edge">
<title>16&#45;&gt;43</title>
<path fill="none" stroke="grey" stroke-width="2" d="M2177.83,-306.46C2255.51,-300.02 2395.32,-288.77 2515,-281 2665.78,-271.21 3046.86,-279.35 3194,-245 3203.5,-242.78 3213.34,-239.36 3222.55,-235.6"/>
<polygon fill="grey" stroke="grey" stroke-width="2" points="3224.07,-238.76 3231.88,-231.6 3221.31,-232.32 3224.07,-238.76"/>
</g>
<!-- 16&#45;&gt;44 -->
<g id="edge107" class="edge">
<title>16&#45;&gt;44</title>
<path fill="none" stroke="grey" stroke-width="2" d="M2177.82,-306.29C2255.49,-299.66 2395.28,-288.22 2515,-281 2697.51,-270 3158.76,-285.75 3337,-245 3346.61,-242.8 3356.55,-239.35 3365.84,-235.55"/>
<polygon fill="grey" stroke="grey" stroke-width="2" points="3367.45,-238.67 3375.25,-231.5 3364.68,-232.24 3367.45,-238.67"/>
</g>
<!-- 16&#45;&gt;45 -->
<g id="edge109" class="edge">
<title>16&#45;&gt;45</title>
<path fill="none" stroke="grey" stroke-width="2" d="M2177.81,-306.17C2255.47,-299.41 2395.26,-287.83 2515,-281 2729.25,-268.78 3270.65,-292.15 3480,-245 3489.62,-242.83 3499.56,-239.4 3508.85,-235.6"/>
<polygon fill="grey" stroke="grey" stroke-width="2" points="3510.46,-238.72 3518.26,-231.55 3507.69,-232.29 3510.46,-238.72"/>
</g>
<!-- 16&#45;&gt;46 -->
<g id="edge111" class="edge">
<title>16&#45;&gt;46</title>
<path fill="none" stroke="grey" stroke-width="2" d="M2177.81,-306.08C2255.46,-299.23 2395.24,-287.54 2515,-281 2760.99,-267.56 3382.54,-298.55 3623,-245 3632.62,-242.86 3642.57,-239.43 3651.86,-235.64"/>
<polygon fill="grey" stroke="grey" stroke-width="2" points="3653.47,-238.76 3661.27,-231.59 3650.7,-232.33 3653.47,-238.76"/>
</g>
<!-- 16&#45;&gt;47 -->
<g id="edge113" class="edge">
<title>16&#45;&gt;47</title>
<path fill="none" stroke="grey" stroke-width="2" d="M2085.16,-294.49C2073.16,-289.12 2059.27,-283.84 2046,-281 1677.17,-202.02 717.63,-324.91 349,-245 339.17,-242.87 329,-239.37 319.54,-235.48"/>
<polygon fill="grey" stroke="grey" stroke-width="2" points="320.92,-232.27 310.36,-231.51 318.14,-238.69 320.92,-232.27"/>
</g>
<!-- 16&#45;&gt;48 -->
<g id="edge115" class="edge">
<title>16&#45;&gt;48</title>
<path fill="none" stroke="grey" stroke-width="2" d="M2084.8,-294.35C2072.88,-289.03 2059.14,-283.83 2046,-281 1708.3,-208.34 829.51,-318.51 492,-245 482.37,-242.9 472.42,-239.5 463.12,-235.71"/>
<polygon fill="grey" stroke="grey" stroke-width="2" points="464.28,-232.4 453.72,-231.65 461.52,-238.82 464.28,-232.4"/>
</g>
<!-- 16&#45;&gt;49 -->
<g id="edge117" class="edge">
<title>16&#45;&gt;49</title>
<path fill="none" stroke="grey" stroke-width="2" d="M2084.8,-294.36C2072.88,-289.05 2059.14,-283.84 2046,-281 1739.66,-214.71 942.34,-311.29 636,-245 626.15,-242.87 615.95,-239.41 606.45,-235.57"/>
<polygon fill="grey" stroke="grey" stroke-width="2" points="607.78,-232.33 597.2,-231.64 605.04,-238.77 607.78,-232.33"/>
</g>
<!-- 17 -->
<g id="node18" class="node">
<title>17</title>
<path fill="none" stroke="#d87d56" stroke-width="2" d="M2441.5,-416C2441.5,-416 2362.5,-416 2362.5,-416 2356.5,-416 2350.5,-410 2350.5,-404 2350.5,-404 2350.5,-392 2350.5,-392 2350.5,-386 2356.5,-380 2362.5,-380 2362.5,-380 2441.5,-380 2441.5,-380 2447.5,-380 2453.5,-386 2453.5,-392 2453.5,-392 2453.5,-404 2453.5,-404 2453.5,-410 2447.5,-416 2441.5,-416"/>
<text text-anchor="middle" x="2402" y="-401" font-family="sans" font-size="10.00">annotation_vep</text>
<text text-anchor="middle" x="2402" y="-390" font-family="sans" font-size="10.00">sample: NA12878</text>
</g>
<!-- 17&#45;&gt;16 -->
<g id="edge57" class="edge">
<title>17&#45;&gt;16</title>
<path fill="none" stroke="grey" stroke-width="2" d="M2350.24,-381.78C2304.12,-368.22 2236.31,-348.28 2185.85,-333.45"/>
<polygon fill="grey" stroke="grey" stroke-width="2" points="2186.59,-330.02 2176.01,-330.55 2184.61,-336.73 2186.59,-330.02"/>
</g>
<!-- 59 -->
<g id="node60" class="node">
<title>59</title>
<path fill="none" stroke="#d8c356" stroke-width="2" d="M3485.5,-344C3485.5,-344 3356.5,-344 3356.5,-344 3350.5,-344 3344.5,-338 3344.5,-332 3344.5,-332 3344.5,-293 3344.5,-293 3344.5,-287 3350.5,-281 3356.5,-281 3356.5,-281 3485.5,-281 3485.5,-281 3491.5,-281 3497.5,-287 3497.5,-293 3497.5,-293 3497.5,-332 3497.5,-332 3497.5,-338 3491.5,-344 3485.5,-344"/>
<text text-anchor="middle" x="3421" y="-332" font-family="sans" font-size="10.00">misc_bedtools_intersect</text>
<text text-anchor="middle" x="3421" y="-321" font-family="sans" font-size="10.00">bed: aml</text>
<text text-anchor="middle" x="3421" y="-310" font-family="sans" font-size="10.00">caller: pbrun_mutectcaller_t</text>
<text text-anchor="middle" x="3421" y="-299" font-family="sans" font-size="10.00">file: NA12878_T.vep</text>
<text text-anchor="middle" x="3421" y="-288" font-family="sans" font-size="10.00">module: parabricks</text>
</g>
<!-- 17&#45;&gt;59 -->
<g id="edge128" class="edge">
<title>17&#45;&gt;59</title>
<path fill="none" stroke="grey" stroke-width="2" d="M2453.58,-392.77C2617.6,-379.33 3128.41,-337.48 3333.99,-320.63"/>
<polygon fill="grey" stroke="grey" stroke-width="2" points="3334.46,-324.1 3344.14,-319.8 3333.89,-317.13 3334.46,-324.1"/>
</g>
<!-- 61 -->
<g id="node62" class="node">
<title>61</title>
<path fill="none" stroke="#d8c356" stroke-width="2" d="M2664.5,-344C2664.5,-344 2535.5,-344 2535.5,-344 2529.5,-344 2523.5,-338 2523.5,-332 2523.5,-332 2523.5,-293 2523.5,-293 2523.5,-287 2529.5,-281 2535.5,-281 2535.5,-281 2664.5,-281 2664.5,-281 2670.5,-281 2676.5,-287 2676.5,-293 2676.5,-293 2676.5,-332 2676.5,-332 2676.5,-338 2670.5,-344 2664.5,-344"/>
<text text-anchor="middle" x="2600" y="-332" font-family="sans" font-size="10.00">misc_bedtools_intersect</text>
<text text-anchor="middle" x="2600" y="-321" font-family="sans" font-size="10.00">bed: all</text>
<text text-anchor="middle" x="2600" y="-310" font-family="sans" font-size="10.00">caller: pbrun_mutectcaller_t</text>
<text text-anchor="middle" x="2600" y="-299" font-family="sans" font-size="10.00">file: NA12878_T.vep</text>
<text text-anchor="middle" x="2600" y="-288" font-family="sans" font-size="10.00">module: parabricks</text>
</g>
<!-- 17&#45;&gt;61 -->
<g id="edge130" class="edge">
<title>17&#45;&gt;61</title>
<path fill="none" stroke="grey" stroke-width="2" d="M2442.55,-379.9C2464.31,-370.72 2491.95,-359.07 2517.97,-348.09"/>
<polygon fill="grey" stroke="grey" stroke-width="2" points="2519.62,-351.2 2527.48,-344.08 2516.9,-344.75 2519.62,-351.2"/>
</g>
<!-- 18 -->
<g id="node19" class="node">
<title>18</title>
<path fill="none" stroke="#afd856" stroke-width="2" d="M2462.5,-560C2462.5,-560 2215.5,-560 2215.5,-560 2209.5,-560 2203.5,-554 2203.5,-548 2203.5,-548 2203.5,-536 2203.5,-536 2203.5,-530 2209.5,-524 2215.5,-524 2215.5,-524 2462.5,-524 2462.5,-524 2468.5,-524 2474.5,-530 2474.5,-536 2474.5,-536 2474.5,-548 2474.5,-548 2474.5,-554 2468.5,-560 2462.5,-560"/>
<text text-anchor="middle" x="2339" y="-545" font-family="sans" font-size="10.00">misc_bgzip</text>
<text text-anchor="middle" x="2339" y="-534" font-family="sans" font-size="10.00">file: parabricks/pbrun_mutectcaller_t/NA12878_T.vcf</text>
</g>
<!-- 18&#45;&gt;17 -->
<g id="edge58" class="edge">
<title>18&#45;&gt;17</title>
<path fill="none" stroke="grey" stroke-width="2" d="M2340.22,-523.81C2342.07,-505.28 2346.69,-475.31 2358,-452 2362.9,-441.89 2370.14,-432.06 2377.33,-423.67"/>
<polygon fill="grey" stroke="grey" stroke-width="2" points="2380.05,-425.88 2384.13,-416.1 2374.84,-421.2 2380.05,-425.88"/>
</g>
<!-- 20 -->
<g id="node21" class="node">
<title>20</title>
<path fill="none" stroke="#68d856" stroke-width="2" d="M2425,-488C2425,-488 2379,-488 2379,-488 2373,-488 2367,-482 2367,-476 2367,-476 2367,-464 2367,-464 2367,-458 2373,-452 2379,-452 2379,-452 2425,-452 2425,-452 2431,-452 2437,-458 2437,-464 2437,-464 2437,-476 2437,-476 2437,-482 2431,-488 2425,-488"/>
<text text-anchor="middle" x="2402" y="-467.5" font-family="sans" font-size="10.00">misc_tabix</text>
</g>
<!-- 18&#45;&gt;20 -->
<g id="edge62" class="edge">
<title>18&#45;&gt;20</title>
<path fill="none" stroke="grey" stroke-width="2" d="M2354.57,-523.7C2362.2,-515.22 2371.52,-504.86 2379.88,-495.58"/>
<polygon fill="grey" stroke="grey" stroke-width="2" points="2382.52,-497.88 2386.61,-488.1 2377.31,-493.2 2382.52,-497.88"/>
</g>
<!-- 19&#45;&gt;18 -->
<g id="edge60" class="edge">
<title>19&#45;&gt;18</title>
<path fill="none" stroke="grey" stroke-width="2" d="M2319.4,-620.17C2322.95,-606.18 2328.02,-586.25 2332.1,-570.15"/>
<polygon fill="grey" stroke="grey" stroke-width="2" points="2335.56,-570.78 2334.63,-560.22 2328.77,-569.05 2335.56,-570.78"/>
</g>
<!-- 20&#45;&gt;17 -->
<g id="edge59" class="edge">
<title>20&#45;&gt;17</title>
<path fill="none" stroke="grey" stroke-width="2" d="M2402,-451.7C2402,-443.98 2402,-434.71 2402,-426.11"/>
<polygon fill="grey" stroke="grey" stroke-width="2" points="2405.5,-426.1 2402,-416.1 2398.5,-426.1 2405.5,-426.1"/>
</g>
<!-- 21 -->
<g id="node22" class="node">
<title>21</title>
<path fill="none" stroke="#70d856" stroke-width="2" d="M1181.5,-416C1181.5,-416 1098.5,-416 1098.5,-416 1092.5,-416 1086.5,-410 1086.5,-404 1086.5,-404 1086.5,-392 1086.5,-392 1086.5,-386 1092.5,-380 1098.5,-380 1098.5,-380 1181.5,-380 1181.5,-380 1187.5,-380 1193.5,-386 1193.5,-392 1193.5,-392 1193.5,-404 1193.5,-404 1193.5,-410 1187.5,-416 1181.5,-416"/>
<text text-anchor="middle" x="1140" y="-395.5" font-family="sans" font-size="10.00">cnv_sv_pindel2vcf</text>
</g>
<!-- 21&#45;&gt;0 -->
<g id="edge3" class="edge">
<title>21&#45;&gt;0</title>
<path fill="none" stroke="grey" stroke-width="2" d="M1086.2,-393.53C876.95,-379.48 125.56,-323.85 57,-245 38.63,-223.87 47.88,-208.47 57,-182 77.21,-123.33 87.57,-99.9 143,-72 238.52,-23.93 1926.53,-19.45 2199.78,-19.04"/>
<polygon fill="grey" stroke="grey" stroke-width="2" points="2199.97,-22.54 2209.97,-19.03 2199.96,-15.54 2199.97,-22.54"/>
</g>
<!-- 22&#45;&gt;21 -->
<g id="edge63" class="edge">
<title>22&#45;&gt;21</title>
<path fill="none" stroke="grey" stroke-width="2" d="M1946.81,-464.59C1795.11,-452.26 1366.64,-417.43 1203.84,-404.19"/>
<polygon fill="grey" stroke="grey" stroke-width="2" points="1203.76,-400.67 1193.51,-403.35 1203.19,-407.65 1203.76,-400.67"/>
</g>
<!-- 23&#45;&gt;22 -->
<g id="edge65" class="edge">
<title>23&#45;&gt;22</title>
<path fill="none" stroke="grey" stroke-width="2" d="M2001,-523.7C2001,-515.98 2001,-506.71 2001,-498.11"/>
<polygon fill="grey" stroke="grey" stroke-width="2" points="2004.5,-498.1 2001,-488.1 1997.5,-498.1 2004.5,-498.1"/>
</g>
<!-- 24 -->
<g id="node25" class="node">
<title>24</title>
<path fill="none" stroke="#78d856" stroke-width="2" d="M349.5,-127C349.5,-127 164.5,-127 164.5,-127 158.5,-127 152.5,-121 152.5,-115 152.5,-115 152.5,-103 152.5,-103 152.5,-97 158.5,-91 164.5,-91 164.5,-91 349.5,-91 349.5,-91 355.5,-91 361.5,-97 361.5,-103 361.5,-103 361.5,-115 361.5,-115 361.5,-121 355.5,-127 349.5,-127"/>
<text text-anchor="middle" x="257" y="-112" font-family="sans" font-size="10.00">misc_imagemagick_convert</text>
<text text-anchor="middle" x="257" y="-101" font-family="sans" font-size="10.00">file: cnv_sv/cnvkit_diagram/NA12878_T</text>
</g>
<!-- 24&#45;&gt;0 -->
<g id="edge4" class="edge">
<title>24&#45;&gt;0</title>
<path fill="none" stroke="grey" stroke-width="2" d="M318.78,-90.98C347.76,-83.76 382.91,-76.08 415,-72 778.29,-25.78 1973.99,-19.81 2199.97,-19.09"/>
<polygon fill="grey" stroke="grey" stroke-width="2" points="2200,-22.59 2209.99,-19.06 2199.98,-15.59 2200,-22.59"/>
</g>
<!-- 25&#45;&gt;24 -->
<g id="edge68" class="edge">
<title>25&#45;&gt;24</title>
<path fill="none" stroke="grey" stroke-width="2" d="M152.92,-195.34C173.56,-178.42 205.28,-152.41 228.27,-133.56"/>
<polygon fill="grey" stroke="grey" stroke-width="2" points="230.5,-136.26 236.01,-127.21 226.06,-130.85 230.5,-136.26"/>
</g>
<!-- 26&#45;&gt;0 -->
<g id="edge5" class="edge">
<title>26&#45;&gt;0</title>
<path fill="none" stroke="grey" stroke-width="2" d="M867.92,-195.43C879.43,-190.32 892.53,-185.23 905,-182 1058.52,-142.24 1103.78,-173.3 1260,-146 1393.58,-122.65 1422.16,-93.78 1556,-72 1799.33,-32.4 2096.56,-22.16 2199.67,-19.72"/>
<polygon fill="grey" stroke="grey" stroke-width="2" points="2199.96,-23.21 2209.88,-19.48 2199.8,-16.21 2199.96,-23.21"/>
</g>
<!-- 27&#45;&gt;0 -->
<g id="edge6" class="edge">
<title>27&#45;&gt;0</title>
<path fill="none" stroke="grey" stroke-width="2" d="M1010.51,-195.37C1022.1,-190.19 1035.35,-185.07 1048,-182 1267.95,-128.58 1336.18,-199.95 1556,-146 1636.03,-126.36 1646.3,-92.94 1726,-72 1898.89,-26.57 2114.29,-19.79 2199.66,-18.99"/>
<polygon fill="grey" stroke="grey" stroke-width="2" points="2199.91,-22.48 2209.88,-18.91 2199.86,-15.48 2199.91,-22.48"/>
</g>
<!-- 28&#45;&gt;0 -->
<g id="edge7" class="edge">
<title>28&#45;&gt;0</title>
<path fill="none" stroke="grey" stroke-width="2" d="M1153.5,-195.35C1165.09,-190.17 1178.35,-185.05 1191,-182 1422.68,-126.17 1501.55,-226.11 1726,-146 1779.43,-126.93 1777.19,-92.72 1830,-72 1897.1,-45.67 2112.33,-27.85 2199.66,-21.54"/>
<polygon fill="grey" stroke="grey" stroke-width="2" points="2200.17,-25.01 2209.9,-20.81 2199.68,-18.03 2200.17,-25.01"/>
</g>
<!-- 29&#45;&gt;0 -->
<g id="edge8" class="edge">
<title>29&#45;&gt;0</title>
<path fill="none" stroke="grey" stroke-width="2" d="M1296.51,-195.38C1308.1,-190.21 1321.36,-185.08 1334,-182 1441.37,-155.83 1729.98,-193 1830,-146 1871.25,-126.62 1860.6,-93.1 1901,-72 1952.56,-45.08 2123.71,-28.21 2199.88,-21.86"/>
<polygon fill="grey" stroke="grey" stroke-width="2" points="2200.3,-25.34 2209.98,-21.03 2199.73,-18.36 2200.3,-25.34"/>
</g>
<!-- 30&#45;&gt;0 -->
<g id="edge9" class="edge">
<title>30&#45;&gt;0</title>
<path fill="none" stroke="grey" stroke-width="2" d="M1439.54,-195.47C1451.13,-190.3 1464.38,-185.16 1477,-182 1568.73,-159.04 1818.59,-192.37 1901,-146 1936.48,-126.03 1920.57,-93.73 1955,-72 1995.29,-46.57 2132.79,-29.55 2199.75,-22.57"/>
<polygon fill="grey" stroke="grey" stroke-width="2" points="2200.28,-26.04 2209.87,-21.54 2199.57,-19.08 2200.28,-26.04"/>
</g>
<!-- 31&#45;&gt;0 -->
<g id="edge10" class="edge">
<title>31&#45;&gt;0</title>
<path fill="none" stroke="grey" stroke-width="2" d="M1582.94,-195.48C1594.44,-190.37 1607.54,-185.27 1620,-182 1692.43,-163.01 1891.6,-185.82 1955,-146 1987.79,-125.4 1969.43,-94.43 2001,-72 2061.12,-29.29 2149.81,-20.23 2199.59,-18.76"/>
<polygon fill="grey" stroke="grey" stroke-width="2" points="2199.96,-22.25 2209.89,-18.55 2199.82,-15.26 2199.96,-22.25"/>
</g>
<!-- 32&#45;&gt;0 -->
<g id="edge11" class="edge">
<title>32&#45;&gt;0</title>
<path fill="none" stroke="grey" stroke-width="2" d="M1726.74,-195.47C1738.08,-190.49 1750.87,-185.46 1763,-182 1865.88,-152.65 1912.85,-206.61 2001,-146 2032.16,-124.57 2013.14,-95.2 2043,-72 2089.13,-36.15 2157.83,-24.52 2199.9,-20.77"/>
<polygon fill="grey" stroke="grey" stroke-width="2" points="2200.29,-24.25 2209.99,-19.97 2199.74,-17.27 2200.29,-24.25"/>
</g>
<!-- 33&#45;&gt;0 -->
<g id="edge12" class="edge">
<title>33&#45;&gt;0</title>
<path fill="none" stroke="grey" stroke-width="2" d="M1871.81,-195.45C1882.69,-190.75 1894.71,-185.88 1906,-182 1965.53,-161.52 1993.5,-184.9 2043,-146 2072.39,-122.9 2054.49,-96.18 2083,-72 2116.52,-43.58 2166.1,-30.13 2199.89,-23.95"/>
<polygon fill="grey" stroke="grey" stroke-width="2" points="2200.56,-27.39 2209.83,-22.26 2199.38,-20.49 2200.56,-27.39"/>
</g>
<!-- 34&#45;&gt;0 -->
<g id="edge13" class="edge">
<title>34&#45;&gt;0</title>
<path fill="none" stroke="grey" stroke-width="2" d="M2008.57,-195.49C2030.17,-182.92 2059.35,-164.8 2083,-146 2119.66,-116.86 2121.73,-101.62 2158,-72 2171.43,-61.03 2187.14,-50.14 2200.99,-41.12"/>
<polygon fill="grey" stroke="grey" stroke-width="2" points="2203.26,-43.82 2209.78,-35.47 2199.47,-37.93 2203.26,-43.82"/>
</g>
<!-- 35&#45;&gt;0 -->
<g id="edge14" class="edge">
<title>35&#45;&gt;0</title>
<path fill="none" stroke="grey" stroke-width="2" d="M2131.29,-195.33C2151.72,-161.26 2197.46,-84.96 2221.52,-44.82"/>
<polygon fill="grey" stroke="grey" stroke-width="2" points="2224.59,-46.51 2226.73,-36.13 2218.59,-42.91 2224.59,-46.51"/>
</g>
<!-- 36&#45;&gt;0 -->
<g id="edge15" class="edge">
<title>36&#45;&gt;0</title>
<path fill="none" stroke="grey" stroke-width="2" d="M2261.6,-195.33C2256.9,-161.62 2246.43,-86.56 2240.78,-46.1"/>
<polygon fill="grey" stroke="grey" stroke-width="2" points="2244.24,-45.55 2239.39,-36.13 2237.31,-46.52 2244.24,-45.55"/>
</g>
<!-- 37&#45;&gt;0 -->
<g id="edge16" class="edge">
<title>37&#45;&gt;0</title>
<path fill="none" stroke="grey" stroke-width="2" d="M2368.24,-195.44C2345.78,-184.02 2318.23,-167.21 2299,-146 2291.69,-137.94 2264.76,-80.11 2248.9,-45.33"/>
<polygon fill="grey" stroke="grey" stroke-width="2" points="2252.07,-43.84 2244.74,-36.19 2245.69,-46.74 2252.07,-43.84"/>
</g>
<!-- 38&#45;&gt;0 -->
<g id="edge17" class="edge">
<title>38&#45;&gt;0</title>
<path fill="none" stroke="grey" stroke-width="2" d="M2512.67,-195.43C2501.64,-190.72 2489.45,-185.86 2478,-182 2416.72,-161.33 2388.4,-185.26 2337,-146 2306.95,-123.05 2318.58,-101.56 2295,-72 2286.68,-61.57 2276.24,-51.37 2266.53,-42.75"/>
<polygon fill="grey" stroke="grey" stroke-width="2" points="2268.8,-40.08 2258.95,-36.2 2264.23,-45.38 2268.8,-40.08"/>
</g>
<!-- 39&#45;&gt;0 -->
<g id="edge18" class="edge">
<title>39&#45;&gt;0</title>
<path fill="none" stroke="grey" stroke-width="2" d="M2658.27,-195.43C2646.93,-190.45 2634.14,-185.43 2622,-182 2515.24,-151.85 2467.52,-207.22 2375,-146 2342.9,-124.76 2357.6,-98.83 2330,-72 2313.77,-56.23 2291.94,-43.47 2273.51,-34.42"/>
<polygon fill="grey" stroke="grey" stroke-width="2" points="2274.76,-31.15 2264.23,-30.04 2271.77,-37.47 2274.76,-31.15"/>
</g>
<!-- 40&#45;&gt;0 -->
<g id="edge19" class="edge">
<title>40&#45;&gt;0</title>
<path fill="none" stroke="grey" stroke-width="2" d="M2802.07,-195.44C2790.57,-190.33 2777.47,-185.23 2765,-182 2688.89,-162.25 2479.69,-187.65 2413,-146 2380.15,-125.49 2396.6,-96.97 2367,-72 2340.04,-49.25 2302.01,-35.29 2274.05,-27.44"/>
<polygon fill="grey" stroke="grey" stroke-width="2" points="2274.81,-24.02 2264.24,-24.82 2273,-30.78 2274.81,-24.02"/>
</g>
<!-- 41&#45;&gt;0 -->
<g id="edge20" class="edge">
<title>41&#45;&gt;0</title>
<path fill="none" stroke="grey" stroke-width="2" d="M2945.48,-195.43C2933.89,-190.26 2920.63,-185.12 2908,-182 2809.1,-157.57 2538.28,-198.53 2451,-146 2417.62,-125.91 2434.87,-95.77 2404,-72 2365.72,-42.53 2310.66,-29.23 2274.38,-23.37"/>
<polygon fill="grey" stroke="grey" stroke-width="2" points="2274.62,-19.87 2264.21,-21.85 2273.58,-26.79 2274.62,-19.87"/>
</g>
<!-- 42&#45;&gt;0 -->
<g id="edge21" class="edge">
<title>42&#45;&gt;0</title>
<path fill="none" stroke="grey" stroke-width="2" d="M3088.86,-195.48C3077.19,-190.25 3063.79,-185.06 3051,-182 2929.29,-152.88 2596.69,-209.75 2489,-146 2455.47,-126.15 2473.51,-94.92 2442,-72 2391.75,-35.44 2318.46,-24.05 2274.48,-20.54"/>
<polygon fill="grey" stroke="grey" stroke-width="2" points="2274.45,-17.03 2264.23,-19.82 2273.96,-24.01 2274.45,-17.03"/>
</g>
<!-- 43&#45;&gt;0 -->
<g id="edge22" class="edge">
<title>43&#45;&gt;0</title>
<path fill="none" stroke="grey" stroke-width="2" d="M3231.88,-195.41C3220.21,-190.17 3206.8,-185 3194,-182 3049.47,-148.18 2655.12,-220.97 2527,-146 2493.37,-126.32 2511.94,-94.31 2480,-72 2417.38,-28.25 2325.26,-19.66 2274.31,-18.52"/>
<polygon fill="grey" stroke="grey" stroke-width="2" points="2274.14,-15.02 2264.09,-18.38 2274.05,-22.02 2274.14,-15.02"/>
</g>
<!-- 44&#45;&gt;0 -->
<g id="edge23" class="edge">
<title>44&#45;&gt;0</title>
<path fill="none" stroke="grey" stroke-width="2" d="M3374.89,-195.36C3363.22,-190.11 3349.81,-184.95 3337,-182 3253.32,-162.74 2639.48,-188.74 2565,-146 2531,-126.49 2549.55,-93.85 2517,-72 2477.72,-45.63 2340.83,-29.08 2274.12,-22.39"/>
<polygon fill="grey" stroke="grey" stroke-width="2" points="2274.33,-18.9 2264.04,-21.41 2273.65,-25.86 2274.33,-18.9"/>
</g>
<!-- 45&#45;&gt;0 -->
<g id="edge24" class="edge">
<title>45&#45;&gt;0</title>
<path fill="none" stroke="grey" stroke-width="2" d="M3518.26,-195.48C3506.5,-190.17 3492.95,-184.94 3480,-182 3384.9,-160.39 2687.72,-194.31 2603,-146 2568.94,-126.58 2587.79,-93.49 2555,-72 2509.27,-42.02 2348.1,-26.93 2274.34,-21.46"/>
<polygon fill="grey" stroke="grey" stroke-width="2" points="2274.35,-17.96 2264.12,-20.73 2273.84,-24.94 2274.35,-17.96"/>
</g>
<!-- 46&#45;&gt;0 -->
<g id="edge25" class="edge">
<title>46&#45;&gt;0</title>
<path fill="none" stroke="grey" stroke-width="2" d="M3661.26,-195.44C3649.51,-190.13 3635.96,-184.91 3623,-182 3516.04,-157.96 2731.29,-201.93 2637,-146 2604.09,-126.48 2624.77,-93.32 2593,-72 2541.36,-37.34 2354.78,-24.54 2274.33,-20.56"/>
<polygon fill="grey" stroke="grey" stroke-width="2" points="2274.32,-17.05 2264.16,-20.07 2273.98,-24.04 2274.32,-17.05"/>
</g>
<!-- 47&#45;&gt;0 -->
<g id="edge26" class="edge">
<title>47&#45;&gt;0</title>
<path fill="none" stroke="grey" stroke-width="2" d="M301.98,-195.36C347.61,-163.86 451.23,-97.65 550,-72 714.54,-29.27 1966.99,-20.46 2199.81,-19.18"/>
<polygon fill="grey" stroke="grey" stroke-width="2" points="2199.84,-22.68 2209.82,-19.13 2199.8,-15.68 2199.84,-22.68"/>
</g>
<!-- 48&#45;&gt;0 -->
<g id="edge27" class="edge">
<title>48&#45;&gt;0</title>
<path fill="none" stroke="grey" stroke-width="2" d="M451.16,-195.4C508.42,-163.97 637.71,-97.87 756,-72 900.75,-40.35 1984.2,-22.74 2199.77,-19.54"/>
<polygon fill="grey" stroke="grey" stroke-width="2" points="2199.99,-23.03 2209.93,-19.39 2199.88,-16.03 2199.99,-23.03"/>
</g>
<!-- 49&#45;&gt;0 -->
<g id="edge28" class="edge">
<title>49&#45;&gt;0</title>
<path fill="none" stroke="grey" stroke-width="2" d="M600.51,-195.5C611.73,-190.69 624.23,-185.75 636,-182 852.79,-112.89 910.45,-102.02 1136,-72 1550.13,-16.88 2058.62,-17.23 2199.37,-18.52"/>
<polygon fill="grey" stroke="grey" stroke-width="2" points="2199.57,-22.03 2209.61,-18.63 2199.64,-15.03 2199.57,-22.03"/>
</g>
<!-- 50 -->
<g id="node51" class="node">
<title>50</title>
<path fill="none" stroke="#56d8c1" stroke-width="2" d="M3119.5,-129.5C3119.5,-129.5 3040.5,-129.5 3040.5,-129.5 3034.5,-129.5 3028.5,-123.5 3028.5,-117.5 3028.5,-117.5 3028.5,-100.5 3028.5,-100.5 3028.5,-94.5 3034.5,-88.5 3040.5,-88.5 3040.5,-88.5 3119.5,-88.5 3119.5,-88.5 3125.5,-88.5 3131.5,-94.5 3131.5,-100.5 3131.5,-100.5 3131.5,-117.5 3131.5,-117.5 3131.5,-123.5 3125.5,-129.5 3119.5,-129.5"/>
<text text-anchor="middle" x="3080" y="-117.5" font-family="sans" font-size="10.00">manta_to_tsv</text>
<text text-anchor="middle" x="3080" y="-106.5" font-family="sans" font-size="10.00">analysis: t</text>
<text text-anchor="middle" x="3080" y="-95.5" font-family="sans" font-size="10.00">sample: NA12878</text>
</g>
<!-- 50&#45;&gt;0 -->
<g id="edge29" class="edge">
<title>50&#45;&gt;0</title>
<path fill="none" stroke="grey" stroke-width="2" d="M3053.52,-88.43C3043.52,-82.05 3031.71,-75.67 3020,-72 2878.4,-27.58 2410.78,-20.38 2274.55,-19.22"/>
<polygon fill="grey" stroke="grey" stroke-width="2" points="2274.25,-15.72 2264.22,-19.14 2274.2,-22.72 2274.25,-15.72"/>
</g>
<!-- 51 -->
<g id="node52" class="node">
<title>51</title>
<path fill="none" stroke="#d8c356" stroke-width="2" d="M4179.5,-245C4179.5,-245 4042.5,-245 4042.5,-245 4036.5,-245 4030.5,-239 4030.5,-233 4030.5,-233 4030.5,-194 4030.5,-194 4030.5,-188 4036.5,-182 4042.5,-182 4042.5,-182 4179.5,-182 4179.5,-182 4185.5,-182 4191.5,-188 4191.5,-194 4191.5,-194 4191.5,-233 4191.5,-233 4191.5,-239 4185.5,-245 4179.5,-245"/>
<text text-anchor="middle" x="4111" y="-233" font-family="sans" font-size="10.00">misc_bedtools_intersect</text>
<text text-anchor="middle" x="4111" y="-222" font-family="sans" font-size="10.00">bed: aml</text>
<text text-anchor="middle" x="4111" y="-211" font-family="sans" font-size="10.00">caller: manta_run_workflow_t</text>
<text text-anchor="middle" x="4111" y="-200" font-family="sans" font-size="10.00">file: NA12878.ssa</text>
<text text-anchor="middle" x="4111" y="-189" font-family="sans" font-size="10.00">module: cnv_sv</text>
</g>
<!-- 51&#45;&gt;50 -->
<g id="edge118" class="edge">
<title>51&#45;&gt;50</title>
<path fill="none" stroke="grey" stroke-width="2" d="M4030.26,-183.72C4027.49,-183.09 4024.73,-182.51 4022,-182 3829.42,-145.86 3328.93,-201.47 3141,-146 3132.26,-143.42 3123.47,-139.32 3115.39,-134.79"/>
<polygon fill="grey" stroke="grey" stroke-width="2" points="3116.99,-131.67 3106.61,-129.55 3113.4,-137.68 3116.99,-131.67"/>
</g>
<!-- 52 -->
<g id="node53" class="node">
<title>52</title>
<path fill="none" stroke="#bed856" stroke-width="2" d="M4011,-330.5C4011,-330.5 3853,-330.5 3853,-330.5 3847,-330.5 3841,-324.5 3841,-318.5 3841,-318.5 3841,-306.5 3841,-306.5 3841,-300.5 3847,-294.5 3853,-294.5 3853,-294.5 4011,-294.5 4011,-294.5 4017,-294.5 4023,-300.5 4023,-306.5 4023,-306.5 4023,-318.5 4023,-318.5 4023,-324.5 4017,-330.5 4011,-330.5"/>
<text text-anchor="middle" x="3932" y="-315.5" font-family="sans" font-size="10.00">annotation_simple_sv_annotation</text>
<text text-anchor="middle" x="3932" y="-304.5" font-family="sans" font-size="10.00">sample: NA12878</text>
</g>
<!-- 52&#45;&gt;51 -->
<g id="edge119" class="edge">
<title>52&#45;&gt;51</title>
<path fill="none" stroke="grey" stroke-width="2" d="M3963.59,-294.38C3986.23,-282.11 4017.54,-265.15 4045.48,-250.01"/>
<polygon fill="grey" stroke="grey" stroke-width="2" points="4047.29,-253.01 4054.42,-245.16 4043.96,-246.85 4047.29,-253.01"/>
</g>
<!-- 57 -->
<g id="node58" class="node">
<title>57</title>
<path fill="none" stroke="#d8c356" stroke-width="2" d="M4000.5,-245C4000.5,-245 3863.5,-245 3863.5,-245 3857.5,-245 3851.5,-239 3851.5,-233 3851.5,-233 3851.5,-194 3851.5,-194 3851.5,-188 3857.5,-182 3863.5,-182 3863.5,-182 4000.5,-182 4000.5,-182 4006.5,-182 4012.5,-188 4012.5,-194 4012.5,-194 4012.5,-233 4012.5,-233 4012.5,-239 4006.5,-245 4000.5,-245"/>
<text text-anchor="middle" x="3932" y="-233" font-family="sans" font-size="10.00">misc_bedtools_intersect</text>
<text text-anchor="middle" x="3932" y="-222" font-family="sans" font-size="10.00">bed: all</text>
<text text-anchor="middle" x="3932" y="-211" font-family="sans" font-size="10.00">caller: manta_run_workflow_t</text>
<text text-anchor="middle" x="3932" y="-200" font-family="sans" font-size="10.00">file: NA12878.ssa</text>
<text text-anchor="middle" x="3932" y="-189" font-family="sans" font-size="10.00">module: cnv_sv</text>
</g>
<!-- 52&#45;&gt;57 -->
<g id="edge126" class="edge">
<title>52&#45;&gt;57</title>
<path fill="none" stroke="grey" stroke-width="2" d="M3932,-294.16C3932,-283.3 3932,-268.83 3932,-255.21"/>
<polygon fill="grey" stroke="grey" stroke-width="2" points="3935.5,-255.03 3932,-245.03 3928.5,-255.03 3935.5,-255.03"/>
</g>
<!-- 53 -->
<g id="node54" class="node">
<title>53</title>
<path fill="none" stroke="#d6d856" stroke-width="2" d="M3497,-488C3497,-488 3165,-488 3165,-488 3159,-488 3153,-482 3153,-476 3153,-476 3153,-464 3153,-464 3153,-458 3159,-452 3165,-452 3165,-452 3497,-452 3497,-452 3503,-452 3509,-458 3509,-464 3509,-464 3509,-476 3509,-476 3509,-482 3503,-488 3497,-488"/>
<text text-anchor="middle" x="3331" y="-473" font-family="sans" font-size="10.00">annotation_snpeff</text>
<text text-anchor="middle" x="3331" y="-462" font-family="sans" font-size="10.00">file: cnv_sv/manta_run_workflow_t/NA12878/results/variants/tumorSV</text>
</g>
<!-- 53&#45;&gt;52 -->
<g id="edge120" class="edge">
<title>53&#45;&gt;52</title>
<path fill="none" stroke="grey" stroke-width="2" d="M3396.75,-451.99C3509.18,-422.9 3737.7,-363.77 3856.48,-333.04"/>
<polygon fill="grey" stroke="grey" stroke-width="2" points="3857.43,-336.41 3866.24,-330.52 3855.68,-329.63 3857.43,-336.41"/>
</g>
<!-- 54&#45;&gt;53 -->
<g id="edge121" class="edge">
<title>54&#45;&gt;53</title>
<path fill="none" stroke="grey" stroke-width="2" d="M2659.68,-533.24C2775.49,-522.5 2987.83,-502.82 3142.78,-488.45"/>
<polygon fill="grey" stroke="grey" stroke-width="2" points="3143.27,-491.92 3152.9,-487.51 3142.62,-484.95 3143.27,-491.92"/>
</g>
<!-- 55&#45;&gt;54 -->
<g id="edge123" class="edge">
<title>55&#45;&gt;54</title>
<path fill="none" stroke="grey" stroke-width="2" d="M2565.38,-620.17C2567.31,-606.18 2570.05,-586.25 2572.27,-570.15"/>
<polygon fill="grey" stroke="grey" stroke-width="2" points="2575.74,-570.61 2573.63,-560.22 2568.8,-569.65 2575.74,-570.61"/>
</g>
<!-- 56 -->
<g id="node57" class="node">
<title>56</title>
<path fill="none" stroke="#56d8c1" stroke-width="2" d="M2998.5,-129.5C2998.5,-129.5 2919.5,-129.5 2919.5,-129.5 2913.5,-129.5 2907.5,-123.5 2907.5,-117.5 2907.5,-117.5 2907.5,-100.5 2907.5,-100.5 2907.5,-94.5 2913.5,-88.5 2919.5,-88.5 2919.5,-88.5 2998.5,-88.5 2998.5,-88.5 3004.5,-88.5 3010.5,-94.5 3010.5,-100.5 3010.5,-100.5 3010.5,-117.5 3010.5,-117.5 3010.5,-123.5 3004.5,-129.5 2998.5,-129.5"/>
<text text-anchor="middle" x="2959" y="-117.5" font-family="sans" font-size="10.00">manta_to_tsv</text>
<text text-anchor="middle" x="2959" y="-106.5" font-family="sans" font-size="10.00">analysis: t</text>
<text text-anchor="middle" x="2959" y="-95.5" font-family="sans" font-size="10.00">sample: NA12878</text>
</g>
<!-- 56&#45;&gt;0 -->
<g id="edge30" class="edge">
<title>56&#45;&gt;0</title>
<path fill="none" stroke="grey" stroke-width="2" d="M2932.2,-88.32C2922.25,-82.01 2910.57,-75.71 2899,-72 2781.36,-34.3 2396.84,-22.58 2274.64,-19.76"/>
<polygon fill="grey" stroke="grey" stroke-width="2" points="2274.38,-16.25 2264.3,-19.53 2274.22,-23.25 2274.38,-16.25"/>
</g>
<!-- 57&#45;&gt;56 -->
<g id="edge125" class="edge">
<title>57&#45;&gt;56</title>
<path fill="none" stroke="grey" stroke-width="2" d="M3851.26,-184.99C3846.47,-183.85 3841.69,-182.84 3837,-182 3658.12,-149.94 3194.22,-197.72 3020,-146 3011.26,-143.41 3002.47,-139.3 2994.39,-134.77"/>
<polygon fill="grey" stroke="grey" stroke-width="2" points="2995.99,-131.65 2985.61,-129.53 2992.41,-137.66 2995.99,-131.65"/>
</g>
<!-- 58 -->
<g id="node59" class="node">
<title>58</title>
<path fill="none" stroke="#56c1d8" stroke-width="2" d="M2877.5,-129.5C2877.5,-129.5 2788.5,-129.5 2788.5,-129.5 2782.5,-129.5 2776.5,-123.5 2776.5,-117.5 2776.5,-117.5 2776.5,-100.5 2776.5,-100.5 2776.5,-94.5 2782.5,-88.5 2788.5,-88.5 2788.5,-88.5 2877.5,-88.5 2877.5,-88.5 2883.5,-88.5 2889.5,-94.5 2889.5,-100.5 2889.5,-100.5 2889.5,-117.5 2889.5,-117.5 2889.5,-123.5 2883.5,-129.5 2877.5,-129.5"/>
<text text-anchor="middle" x="2833" y="-117.5" font-family="sans" font-size="10.00">mutectcaller_to_tsv</text>
<text text-anchor="middle" x="2833" y="-106.5" font-family="sans" font-size="10.00">analysis: t</text>
<text text-anchor="middle" x="2833" y="-95.5" font-family="sans" font-size="10.00">sample: NA12878</text>
</g>
<!-- 58&#45;&gt;0 -->
<g id="edge31" class="edge">
<title>58&#45;&gt;0</title>
<path fill="none" stroke="grey" stroke-width="2" d="M2803.72,-88.47C2792.93,-82.18 2780.31,-75.84 2768,-72 2675.45,-43.1 2379.26,-26.03 2274.31,-20.76"/>
<polygon fill="grey" stroke="grey" stroke-width="2" points="2274.35,-17.26 2264.19,-20.26 2274,-24.25 2274.35,-17.26"/>
</g>
<!-- 59&#45;&gt;58 -->
<g id="edge127" class="edge">
<title>59&#45;&gt;58</title>
<path fill="none" stroke="grey" stroke-width="2" d="M3497.57,-308.62C3629.19,-301.17 3876.05,-274.74 3787,-182 3718.6,-110.77 2994.17,-172.33 2899,-146 2889.48,-143.37 2879.81,-139.14 2870.93,-134.5"/>
<polygon fill="grey" stroke="grey" stroke-width="2" points="2872.43,-131.33 2861.99,-129.55 2869.05,-137.46 2872.43,-131.33"/>
</g>
<!-- 60 -->
<g id="node61" class="node">
<title>60</title>
<path fill="none" stroke="#56c1d8" stroke-width="2" d="M2746.5,-129.5C2746.5,-129.5 2657.5,-129.5 2657.5,-129.5 2651.5,-129.5 2645.5,-123.5 2645.5,-117.5 2645.5,-117.5 2645.5,-100.5 2645.5,-100.5 2645.5,-94.5 2651.5,-88.5 2657.5,-88.5 2657.5,-88.5 2746.5,-88.5 2746.5,-88.5 2752.5,-88.5 2758.5,-94.5 2758.5,-100.5 2758.5,-100.5 2758.5,-117.5 2758.5,-117.5 2758.5,-123.5 2752.5,-129.5 2746.5,-129.5"/>
<text text-anchor="middle" x="2702" y="-117.5" font-family="sans" font-size="10.00">mutectcaller_to_tsv</text>
<text text-anchor="middle" x="2702" y="-106.5" font-family="sans" font-size="10.00">analysis: t</text>
<text text-anchor="middle" x="2702" y="-95.5" font-family="sans" font-size="10.00">sample: NA12878</text>
</g>
<!-- 60&#45;&gt;0 -->
<g id="edge32" class="edge">
<title>60&#45;&gt;0</title>
<path fill="none" stroke="grey" stroke-width="2" d="M2669.03,-88.38C2657.37,-82.24 2643.93,-76.02 2631,-72 2504.37,-32.62 2345.88,-22.5 2274.68,-19.9"/>
<polygon fill="grey" stroke="grey" stroke-width="2" points="2274.54,-16.39 2264.43,-19.55 2274.3,-23.39 2274.54,-16.39"/>
</g>
<!-- 61&#45;&gt;60 -->
<g id="edge129" class="edge">
<title>61&#45;&gt;60</title>
<path fill="none" stroke="grey" stroke-width="2" d="M2676.91,-308.52C2933.81,-298.4 3747.25,-264.85 3766,-245 3785.23,-224.65 3785.44,-202.15 3766,-182 3727.48,-142.07 2821.5,-160.68 2768,-146 2758.47,-143.39 2748.81,-139.17 2739.92,-134.53"/>
<polygon fill="grey" stroke="grey" stroke-width="2" points="2741.42,-131.36 2730.98,-129.59 2738.04,-137.49 2741.42,-131.36"/>
</g>
<!-- 62 -->
<g id="node63" class="node">
<title>62</title>
<path fill="none" stroke="#56d8b1" stroke-width="2" d="M3512.5,-146C3512.5,-146 3419.5,-146 3419.5,-146 3413.5,-146 3407.5,-140 3407.5,-134 3407.5,-134 3407.5,-84 3407.5,-84 3407.5,-78 3413.5,-72 3419.5,-72 3419.5,-72 3512.5,-72 3512.5,-72 3518.5,-72 3524.5,-78 3524.5,-84 3524.5,-84 3524.5,-134 3524.5,-134 3524.5,-140 3518.5,-146 3512.5,-146"/>
<text text-anchor="middle" x="3466" y="-134" font-family="sans" font-size="10.00">compression_spring</text>
<text text-anchor="middle" x="3466" y="-123" font-family="sans" font-size="10.00">barcode: ACGGAACA</text>
<text text-anchor="middle" x="3466" y="-112" font-family="sans" font-size="10.00">flowcell: 1</text>
<text text-anchor="middle" x="3466" y="-101" font-family="sans" font-size="10.00">lane: L001</text>
<text text-anchor="middle" x="3466" y="-90" font-family="sans" font-size="10.00">sample: NA12878</text>
<text text-anchor="middle" x="3466" y="-79" font-family="sans" font-size="10.00">type: T</text>
</g>
<!-- 62&#45;&gt;0 -->
<g id="edge33" class="edge">
<title>62&#45;&gt;0</title>
<path fill="none" stroke="grey" stroke-width="2" d="M3407.43,-76.59C3402.63,-74.8 3397.79,-73.23 3393,-72 3174.32,-15.7 2448.34,-17.41 2274.6,-18.66"/>
<polygon fill="grey" stroke="grey" stroke-width="2" points="2274.39,-15.16 2264.42,-18.74 2274.45,-22.16 2274.39,-15.16"/>
</g>
<!-- 63 -->
<g id="node64" class="node">
<title>63</title>
<path fill="none" stroke="#567bd8" stroke-width="2" d="M4322,-231.5C4322,-231.5 4222,-231.5 4222,-231.5 4216,-231.5 4210,-225.5 4210,-219.5 4210,-219.5 4210,-207.5 4210,-207.5 4210,-201.5 4216,-195.5 4222,-195.5 4222,-195.5 4322,-195.5 4322,-195.5 4328,-195.5 4334,-201.5 4334,-207.5 4334,-207.5 4334,-219.5 4334,-219.5 4334,-225.5 4328,-231.5 4322,-231.5"/>
<text text-anchor="middle" x="4272" y="-211" font-family="sans" font-size="10.00">compression_crumble</text>
</g>
<!-- 63&#45;&gt;0 -->
<g id="edge34" class="edge">
<title>63&#45;&gt;0</title>
<path fill="none" stroke="grey" stroke-width="2" d="M4238.89,-195.34C4227.22,-190.1 4213.82,-184.94 4201,-182 4114.05,-162.07 3474.32,-193.78 3399,-146 3367.61,-126.09 3391.37,-91.95 3360,-72 3313.17,-42.22 2463.07,-23.52 2274.04,-19.72"/>
<polygon fill="grey" stroke="grey" stroke-width="2" points="2274.1,-16.22 2264.04,-19.52 2273.97,-23.22 2274.1,-16.22"/>
</g>
<!-- 65 -->
<g id="node66" class="node">
<title>65</title>
<path fill="none" stroke="#d8cb56" stroke-width="2" d="M3338.5,-127C3338.5,-127 3161.5,-127 3161.5,-127 3155.5,-127 3149.5,-121 3149.5,-115 3149.5,-115 3149.5,-103 3149.5,-103 3149.5,-97 3155.5,-91 3161.5,-91 3161.5,-91 3338.5,-91 3338.5,-91 3344.5,-91 3350.5,-97 3350.5,-103 3350.5,-103 3350.5,-115 3350.5,-115 3350.5,-121 3344.5,-127 3338.5,-127"/>
<text text-anchor="middle" x="3250" y="-112" font-family="sans" font-size="10.00">misc_samtools_index</text>
<text text-anchor="middle" x="3250" y="-101" font-family="sans" font-size="10.00">file: compression/crumble/NA12878_T</text>
</g>
<!-- 63&#45;&gt;65 -->
<g id="edge133" class="edge">
<title>63&#45;&gt;65</title>
<path fill="none" stroke="grey" stroke-width="2" d="M4239.25,-195.49C4227.5,-190.19 4213.95,-184.96 4201,-182 3838.42,-99.25 3731.34,-210.09 3365,-146 3344.91,-142.48 3323.44,-136.42 3304.55,-130.27"/>
<polygon fill="grey" stroke="grey" stroke-width="2" points="3305.53,-126.9 3294.94,-127.05 3303.31,-133.54 3305.53,-126.9"/>
</g>
<!-- 64&#45;&gt;63 -->
<g id="edge131" class="edge">
<title>64&#45;&gt;63</title>
<path fill="none" stroke="grey" stroke-width="2" d="M4046.43,-379.83C4091.29,-346.95 4189.37,-275.06 4240.14,-237.85"/>
<polygon fill="grey" stroke="grey" stroke-width="2" points="4242.46,-240.49 4248.46,-231.76 4238.32,-234.85 4242.46,-240.49"/>
</g>
<!-- 65&#45;&gt;0 -->
<g id="edge35" class="edge">
<title>65&#45;&gt;0</title>
<path fill="none" stroke="grey" stroke-width="2" d="M3207.19,-90.99C3187.37,-83.87 3163.32,-76.26 3141,-72 2970.76,-39.48 2423.2,-23.66 2274.54,-19.9"/>
<polygon fill="grey" stroke="grey" stroke-width="2" points="2274.23,-16.39 2264.14,-19.64 2274.05,-23.39 2274.23,-16.39"/>
</g>
</g>
</svg>
